<svg id="Capa_5" data-name="Capa 5" xmlns="http://www.w3.org/2000/svg" viewBox="0 0 690.98 634.56"><title>character</title><path d="M82.34,634.56a1,1,0,0,0-1-.85c-.64,0-1.28,0-1.92,0H57.11c-.56,0-1.12,0-1.68,0a1.5,1.5,0,0,1-1.74-1.28c-.14-.81.59-1.53,1.66-1.64a18.39,18.39,0,0,1,1.92,0H79.59c2.17,0,2.17,0,2.33-2.2a71.39,71.39,0,0,1,58.25-65.11,56.8,56.8,0,0,1,6.41-.89c2.2-.16,2.22-.18,1.46-2.18a72.4,72.4,0,0,1-3.88-14.81,70.08,70.08,0,0,1,4-36.29,15.3,15.3,0,0,0,.85-5.62,1.75,1.75,0,0,0-1.52-2q-9.16-2.4-18.28-4.93c-1.16-.32-1.53,0-1.81,1.1-1.71,6.49-3.49,13-5.25,19.44-1.21,4.47-2.42,8.95-3.66,13.41-.53,1.91-1.18,2.5-2.24,2.14s-1.14-1.14-.66-2.92q4.28-15.85,8.58-31.7c.1-.39.21-.77.34-1.15.35-1,.06-1.59-1.07-1.89q-9.15-2.42-18.27-5c-1.36-.38-1.83.37-2.4,1.32q-7.45,12.45-15,24.88l-3.21,5.35c-.25.41-.49.83-.77,1.21a1.39,1.39,0,0,1-2.07.48,1.37,1.37,0,0,1-.49-1.89c.32-.64.69-1.26,1.06-1.88l16.94-28.16c.25-.41.48-.83.75-1.23.65-.92.41-1.34-.68-1.63-5.25-1.38-10.57-2.6-15.71-4.34-3.13-1.06-5-.28-7.21,2-8.57,8.84-17.37,17.48-26.08,26.19a13.17,13.17,0,0,1-1.58,1.47,1.4,1.4,0,0,1-2-.15,1.34,1.34,0,0,1,0-1.95c.46-.55,1-1.05,1.49-1.56l25.93-26c1.91-1.91,1.91-1.93-.63-2.62-4.55-1.24-9.12-2.39-13.65-3.71a4.16,4.16,0,0,0-4,.69q-18.21,12.9-36.5,25.68c-.65.46-1.31.92-2,1.33a1.35,1.35,0,0,1-1.9-.41,1.33,1.33,0,0,1,.19-1.93A15.63,15.63,0,0,1,17.5,502q61.65-43.31,123.31-86.59a6.54,6.54,0,0,0,2.78-3.93q23.29-86.21,46.67-172.39c.13-.46.21-.94.37-1.39.27-.75-.06-1.11-.67-1.55-3.23-2.3-3.95-4.1-3-7.75a2,2,0,0,0-.62-2.09,6,6,0,0,1-1-7.1,2.08,2.08,0,0,0-.39-2.67,10.42,10.42,0,0,1,3.86-16.13,7.24,7.24,0,0,1,1.81-.61,15.88,15.88,0,0,1,9.3,1.19c.87.41.77-.32.85-.59.57-1.91,1.07-3.85,1.59-5.78L236.55,68a20.5,20.5,0,0,1,.62-2.06,5.47,5.47,0,0,1,6.59-3.42,5.37,5.37,0,0,1,3.85,6.52c-1.28,5.12-2.69,10.2-4.07,15.29q-15.24,56.23-30.48,112.45l-.12.46c-.52,2-.53,2.09,1.54,2.27a16.92,16.92,0,0,1,11.68,5.91,17.43,17.43,0,0,1-2.28,25,9.82,9.82,0,0,1-1,.71c-.69.43-.76.89-.29,1.56q2.76,3.92,5.45,7.9c.49.72.93.7,1.54.17,1.15-1,2.32-2,3.51-2.9,1.5-1.17,2-1.15,3.21.25q3,3.47,5.81,7c1.2,1.5,1.14,1.87-.26,3.21s-1.43,1.36-.42,2.88c12.14,18.27,26.46,34.52,44.27,47.48,10,7.31,20.91,13,33.08,15.89a63.31,63.31,0,0,0,14.48,1.81c2.07,0,2.21-.17,2.48-2.27a5.7,5.7,0,0,0-.6-3,47.32,47.32,0,0,0-5.89-9.86c-4.54-6.11-9.69-11.7-14.68-17.43a196.82,196.82,0,0,1-16.25-20.78c-6.52-9.91-11.4-20.53-13.7-32.24a76.24,76.24,0,0,1-1.37-11.18c-.09-1.89-.15-1.89-2.06-2.18a16,16,0,0,1,4.46-31.64c2,.26,2,.26,2.69-1.54a83,83,0,0,1,25.67-35.57c.46-.37,1.35-.63,1.16-1.31s-1.09-.51-1.69-.65l-21.93-5.18c-.7-.17-1.41-.31-2.09-.52A11,11,0,0,1,281.81,128a10.8,10.8,0,0,1,13-8.15c6.87,1.49,13.7,3.17,20.55,4.78,8.48,2,17,3.94,25.43,6a3,3,0,0,0,3.43-1.17c12-13.48,27-18.71,44.51-14.84,17.92,4,29.51,15.22,34.47,33a3.75,3.75,0,0,0,3.21,3.12c14.56,3.34,29.11,6.77,43.66,10.17.47.11.93.24,1.39.36,6.1,1.59,9.42,7,8,13-1.49,6.32-6.89,9.79-13.18,8.37-5.92-1.33-11.83-2.75-17.75-4.1-1.43-.33-1.56-.22-1.29,1.21,1.31,7.15,2.69,14.3,4,21.45.23,1.27.94,1.6,2,1.91,6.35,1.76,10.39,5.85,11.7,12.33s-.91,12-6.2,16a2.89,2.89,0,0,0-1.29,3.37c1.76,9.1,3.41,18.22,5.1,27.34.07.39.14.79.25,1.17s.16.72.37.83.56-.2.75-.46c3.28-4.24,6.4-8.6,9.3-13.11a1.34,1.34,0,0,0-.3-2c-1.69-1.58-1.68-1.82-.29-3.53,1.86-2.3,3.74-4.59,5.65-6.85,1.13-1.33,1.6-1.33,3-.39.54.36,1.12,1.39,1.69.8a2.85,2.85,0,0,0,.6-2.91,4.65,4.65,0,0,0-.84-1.16c-1.29-1.63-2.62-3.23-3.86-4.9a6.25,6.25,0,0,1,.88-8.82,6.4,6.4,0,0,1,9,.78c1.66,1.85,1.67,1.85,3-.13,1.93-2.85,3.82-5.72,5.77-8.55a6.59,6.59,0,0,1,5.35-3.18,6.28,6.28,0,0,1,6.13,8.71c-.21.52-.54,1-.77,1.49-.3.69-1.19,1.1-1,2a6.77,6.77,0,0,0,2-1.22c1.86-1.24,3.69-2.54,5.55-3.79,2.76-1.85,5.45-1.9,7.8-.19A6.3,6.3,0,0,1,525,224c-.34,1.2-.08,1.35,1,1.14a6.39,6.39,0,0,1,7.64,6.48,6,6,0,0,1-3.81,5.61c-1.17.51-2.4.88-3.6,1.32-1.6.59-1.62.61-.48,1.8a6.47,6.47,0,0,1,1.9,5.47,6.26,6.26,0,0,1-6.73,5.51c-4.23-.29-8.46-.59-12.67-1.06-1.8-.2-3.31,0-4.51,1.43a4.29,4.29,0,0,1-.54.48c-2,1.74-2,1.74-.17,3.55,1.08,1.06,1.19,1.68.23,2.88q-3,3.75-6.11,7.4c-1,1.17-1.54,1.14-2.87.22-.82-.57-1.46-1.84-2.5-1.55s-1.28,1.56-1.85,2.41a214.81,214.81,0,0,1-20,25.16,4,4,0,0,0-1.15,3.85q3.75,19.79,7.41,39.59c.06.31.13.63.17.94.29,2.14,0,2.58-2.14,2.79q-19.21,1.95-38.42,3.88l-40.09,4.11c-4.06.41-8.12.78-12.18,1.18-2.37.23-2.42.25-2.12,2.6,1,8,2,16,3.06,24,1,8.17,1.93,16.36,3.17,24.49.87,5.68.43,11.31.19,17-.36,8.31-.77,16.62-1.15,24.93q-1.15,25.17-2.29,50.33-.81,17.86-1.59,35.71-1.1,24.33-2.23,48.65c-.33,7.19-.64,14.38-1,21.57a5.76,5.76,0,0,0,.68,3,23.08,23.08,0,0,0,5.12,6.6,40.71,40.71,0,0,0,13.6,7.92c7.19,2.67,14.41,5.28,21.61,7.91,2.67,1,2.67,1,2.68,3.72,0,3.74,0,3.74,3.88,3.74h17.76c2.66,0,2.56.19,2.56-2.66,0-25.92-.29-51.84.08-77.75.4-27.81,12.93-49.09,37.14-62.65,42.13-23.59,95.15,1.07,104.87,48.35A69,69,0,0,1,591,553.66c-.1,1.8-.05,1.84,1.59,1a52,52,0,0,1,26.7-5.59c22.32,1.43,38.6,12.31,48.05,32.5,7.26,15.5,6.7,31.32-.59,46.85-.1.22-.21.43-.31.65-.71,1.56-.7,1.58.93,1.64.48,0,1,0,1.44,0h19.44a4.68,4.68,0,0,1,2.77.48v1.92c-1.12.94-2.45.54-3.69.54q-229.71,0-459.42,0h-2.4a1.38,1.38,0,0,0-1.53.88Z" fill="#151d38"/><path d="M134,423.53c.32,0-.09-.32.16-.12s.14.2,0,.3.19-.07-.11-.12l-.37.7a6.55,6.55,0,0,0-2,1.24l-39.45,27.7q-14.62,10.27-29.23,20.55c-.49.35-1.37.57-1.24,1.26.08.45.93.49,1.47.64,4.55,1.23,9.1,2.44,13.64,3.73a2.84,2.84,0,0,0,3.17-.84q26.31-26.44,52.68-52.82c.41-.41,1.12-.7,1-1.5C134.09,424.22,134,423.85,134,423.53Z" fill="#fff"/><path d="M197.45,218a71.59,71.59,0,0,0,8.68,1.49,3.25,3.25,0,0,0,3.67-2c.34-.92.55-2-.28-2.68-.66-.56-1.3.28-1.95.48a7.08,7.08,0,0,0-1.51.73A13.45,13.45,0,0,1,197.4,218c0-.82-.84-.83-1.29-1.17a7.28,7.28,0,0,1-2.71-4.1c-.25-1-.15-2-.89-2.91A1.2,1.2,0,0,1,193,208c2.2-1.08,3.66-3.3,6.13-3.95a.79.79,0,0,0,.39-.26.87.87,0,0,0,.14-.42c0-.22-.08-.29-.28-.27-2,.25-3.94-.49-5.92-.59a7.48,7.48,0,0,0-7.9,6.17,7.38,7.38,0,0,0,5.7,8.44A25,25,0,0,0,197.45,218Z" fill="#fce2d8"/><path d="M629.83,554.11c0-.19.13-.15.07-.07-.19.25.18,0-.13,0a3.35,3.35,0,0,1,1.28,1.39,3.91,3.91,0,0,1-6.65,4.07,4.07,4.07,0,0,1,.62-5.24c.48-.45,1.63-.49,1.41-1.18-.16-.5-1.26-.47-2-.55a5,5,0,0,0-3.25.39,2.77,2.77,0,0,1-3,0c-1.52-1.08-3.17-.95-4.83-.81a53.8,53.8,0,0,0-12,2.27c-1.2.38-1.88.71-1.52,2.29a3.6,3.6,0,0,1-2.58,4.3,3.68,3.68,0,0,1-4.42-1.53c-.57-.89-1.07-1.08-1.9-.48a4.06,4.06,0,0,1-.63.35c-1.87.9-2.75.37-2.7-1.64,0-.72.08-1.44.14-2.15.11-1.24,0-2.11-1.44-2.81a3.66,3.66,0,0,1-.36-6.46c1.8-1,1.85-2.06,1.57-3.64-.24-1.34-.43-2.68-.62-4a2.4,2.4,0,0,0-1-1.81,3.76,3.76,0,0,1-1.26-4.9,3.39,3.39,0,0,0,0-2.54c-.51-1.56-.51-1.57-1.88-.61a4,4,0,0,1-5.58-.64,3.88,3.88,0,0,1,2.75-6.28c1.65-.25,1.68-.26.94-1.76a67.78,67.78,0,0,0-7.25-11.57c-1-1.25-1.84-2.61-3.43-3.25A2.26,2.26,0,0,1,569,503.8c-.49-1.54-1.73-2.44-2.76-3.54-1.8-1.93-4.08-3.27-6.09-4.95a57,57,0,0,0-13.82-8.09c-1-.44-1.44-.37-2,.71a3.85,3.85,0,0,1-7.27-2.26c.28-1.5-.33-1.73-1.47-2a77.24,77.24,0,0,0-11.35-1.73c-3.89-.35-7.75.34-11.63.06a2.26,2.26,0,0,0-.71.09c-.63.16-.79.45-.26,1a5.75,5.75,0,0,1,1,1.06,3.89,3.89,0,0,1-3.76,6,3.75,3.75,0,0,1-3.27-2.77,3.89,3.89,0,0,1,.34-3c.18-.39.79-.78.42-1.18s-.91,0-1.36.11c-1.78.44-3.56.92-5.35,1.32a2.53,2.53,0,0,0-2.31,2.46,3.66,3.66,0,0,1-5.91,2.39c-1.39-1.12-2.35-.83-3.56-.11s-1.16.74,0,1.53a4.08,4.08,0,0,1,1.42,4.9,3.92,3.92,0,0,1-7.47-1.27c-.26-1.4-.28-1.43-1.48-.61a69,69,0,0,0-18.39,18.71c-.43.64-.61,1.16.42,1.33a5,5,0,0,1,.93.24,3.89,3.89,0,1,1-3.72,6.7,14.25,14.25,0,0,1-1-1c-.22-.21-.46-.38-.79,0a3.33,3.33,0,0,0-.49,3.65c1.57,2.83.65,5.14-2.49,6.1-.65.2-1.17.35-1.38,1.1a59.27,59.27,0,0,0-1.59,6.52c-.09.58,0,.93.72.75a6.64,6.64,0,0,1,1.65-.24,3.84,3.84,0,0,1,3.4,5.63c-1,1.95-3.09,2.59-5.35,1.65-1.5-.62-1.57-.63-1.62.94-.09,2.56-.09,5.12-.12,7.68,0,.82,0,1.63,1.12.69a3.63,3.63,0,0,1,1-.6,4,4,0,0,1,4.4,1.05,3.9,3.9,0,0,1,.36,4.67,4,4,0,0,1-4.17,1.73,3.64,3.64,0,0,1-1.7-.85c-.77-.67-1.06-.48-1.06.5,0,2.48,0,5,0,7.44,0,.71-.19,1.75.19,2.07.63.53,1.13-.53,1.77-.77a4.19,4.19,0,0,1,4.62,1,3.91,3.91,0,0,1,.45,4.47,4,4,0,0,1-4.07,1.95,3.94,3.94,0,0,1-1.92-.92c-.87-.74-1-.27-1,.57,0,2.48,0,5,0,7.44,0,.71-.18,1.77.2,2.06.64.49,1.14-.56,1.78-.81a4,4,0,0,1,4.75,1.22,3.89,3.89,0,0,1-.12,4.88,3.83,3.83,0,0,1-4.78,1,7.3,7.3,0,0,1-1-.67c-.65-.47-.83-.09-.83.49,0,3,0,5.92,0,8.88,0,1.13.25,1.18,1.19.58,2.07-1.33,4-1.09,5.38.47a3.9,3.9,0,0,1,0,5.06c-1.33,1.61-3.28,1.83-5.38.6a1.21,1.21,0,0,1-.19-.14c-.87-.77-1-.27-1,.57,0,2.56,0,5.12,0,7.68,0,2,0,2,1.76,1.12a3.88,3.88,0,0,1,4.8.87,3.83,3.83,0,0,1,.18,4.86,4.13,4.13,0,0,1-4.76,1.24c-.65-.24-1.16-1.29-1.79-.8-.38.29-.19,1.35-.2,2.06,0,1.44,0,2.88,0,4.32,0,.91.37,1.29,1.28,1.28,2,0,4,0,6,0,.58,0,.87-.2.66-.87a5.74,5.74,0,0,1-.27-1.65,3.84,3.84,0,0,1,5.56-3.53,4,4,0,0,1,2.09,4.43c-.22,1.6-.22,1.62,1.37,1.64q2.76,0,5.52,0c1.54,0,1.56,0,1.31-1.66a3.89,3.89,0,0,1,5.57-4.35c1.67.8,2.44,2.47,1.89,4.68-.3,1.22.1,1.37,1.1,1.35,2.16,0,4.32,0,6.48,0,.83,0,1.21-.24.88-1.12a3.59,3.59,0,0,1-.23-.93,3.9,3.9,0,1,1,7.73.13,9.66,9.66,0,0,1-.33,1.15c-.13.51.12.74.61.74h7.44c.68,0,.78-.38.61-.94a5.54,5.54,0,0,1-.31-1.15,3.77,3.77,0,0,1,1.77-3.69,3.92,3.92,0,0,1,6,3.71,5.79,5.79,0,0,1-.31,1.15c-.18.58,0,.92.64.92H521c.51,0,.71-.27.58-.76a9.28,9.28,0,0,1-.36-1.39,3.91,3.91,0,1,1,7.79-.09,4.57,4.57,0,0,1-.27,1.17c-.32.91.11,1.11.91,1.1,2.24,0,4.48,0,6.72,0,.82,0,1.2-.25.87-1.13a4.06,4.06,0,0,1-.25-1.16,3.91,3.91,0,0,1,4-4.17,3.84,3.84,0,0,1,3.76,4.11,3.57,3.57,0,0,1-.2,1.18c-.44,1.07.15,1.19,1,1.18,1.76,0,3.52,0,5.28,0,.71,0,1.59.16,2.1-.19.7-.48-.11-1.27-.14-1.95a4,4,0,0,1,3.83-4.32,3.83,3.83,0,0,1,3.91,4.19,3.57,3.57,0,0,1-.21,1.17c-.39.94.1,1.09.86,1.09,1.68,0,3.36,0,5,0,.87,0,1.94.35,2.56-.22s-.21-1.44-.2-2.23a3.91,3.91,0,0,1,3.9-4,3.83,3.83,0,0,1,3.85,4,3.27,3.27,0,0,1-.17,1.18c-.41,1-.08,1.28.9,1.27,2.16,0,4.32,0,6.48,0,1.06,0,1.31-.21,1-1.36-.5-2.21.15-3.71,1.69-4.57a3.77,3.77,0,0,1,4.09.09,3.85,3.85,0,0,1,1.7,4.17c-.25,1.61-.23,1.63,1.35,1.65s3.2,0,4.8,0c2.14,0,2.14,0,2-2.13a3.87,3.87,0,0,1,3.78-4.34,3.91,3.91,0,0,1,3.94,4.42,6.81,6.81,0,0,1-.29,1.16c-.19.65.13.87.72.87,1.92,0,3.84,0,5.76,0,.7,0,1.58.32,2-.25s-.24-1.19-.28-1.82a3.8,3.8,0,0,1,1.74-3.71,3.92,3.92,0,0,1,6.06,3.67,5.75,5.75,0,0,1-.31,1.16c-.16.55-.08.95.61.95h7.44c.49,0,.74-.23.61-.74a9.48,9.48,0,0,1-.33-1.15,3.77,3.77,0,0,1,1.76-3.92,3.89,3.89,0,0,1,6,3.77,6.08,6.08,0,0,1-.29,1.16c-.2.64.09.88.7.88h7.2c.57,0,.92-.19.74-.86a7.38,7.38,0,0,1-.31-1.39,3.89,3.89,0,1,1,7.76-.12c0,.76-.79,1.66-.15,2.19s1.7.16,2.57.19,1.76,0,2.64,0c2.09,0,2.64-.45,2.92-2.57a4.46,4.46,0,0,1,1-2.61c2.18-2.34,2.58-5.41,3.44-8.29.19-.63-.16-.86-.74-.91a4.07,4.07,0,0,1-.95-.14,3.89,3.89,0,0,1-2.74-4.26,3.79,3.79,0,0,1,3.76-3.35,3.67,3.67,0,0,1,1,.06c1,.23,1.28-.37,1.31-1.18,0-1.44.1-2.88.09-4.32,0-2.44,0-2.44-2.5-2.62a3.79,3.79,0,0,1-3.61-3.25,3.89,3.89,0,0,1,2.64-4.32,5,5,0,0,1,1.18-.18c.58,0,1-.29.76-.89-1-2.89-1.05-6.18-3.63-8.41a2.76,2.76,0,0,1-1-2.37c.13-1.31-.58-2.27-1.13-3.33a1.66,1.66,0,0,0-2.07-1c-3.5.5-5.75-2.42-4.23-5.58.63-1.3.09-1.82-.58-2.63s-1.28-.41-2-.05a3.89,3.89,0,0,1-5.62-2.28,3.43,3.43,0,0,1,.24-2.79c.48-.81.21-1.28-.48-1.79a3.2,3.2,0,0,0-3-.68,3.34,3.34,0,0,1-4.31-2.09c-.48-1.89-1.72-2.51-3.26-3l-4.75-1.67A2.38,2.38,0,0,0,629.83,554.11Z" fill="#c47659"/><path d="M269.65,630.72h14.88c3.85,0,3.85,0,3.88-4,0-2.72,0-2.74,2.5-3.62l21.7-7.68a43.94,43.94,0,0,0,12.45-6.6,24.37,24.37,0,0,0,6.85-7.93,8.18,8.18,0,0,0,1-4.61c-.37-4.38-.64-8.77-.93-13.16q-1.05-15.56-2.1-31.12-1.1-16.16-2.23-32.31c-.7-10.29-1.37-20.59-2.08-30.88q-1.32-19.27-2.68-38.53c-.77-11.17-1.63-22.33-2.26-33.51-.3-5.28-1.11-10.51.19-15.89,1.67-6.9,2.52-14,3.72-21q3.31-19.38,6.61-38.76c.28-1.65.25-1.68-1.46-1.77a91,91,0,0,1-19.36-3.21c-14.45-4-27.44-10.91-39.44-19.77C252.25,302.65,237,285.68,224,266.68c-1.47-2.15-1.46-2.16-3.57-.59-1.46,1.09-1.94,1.12-3-.16q-3.12-3.64-6.11-7.41c-1-1.26-.92-1.75.29-2.84s2.3-2,3.52-2.89c.88-.66,1-1.2.31-2.14-2.39-3.3-4.67-6.69-7-10-.73-1-1.16-2.55-2.37-2.88-.95-.25-2.12.48-3.21.62a1.36,1.36,0,0,0-1.31,1.14c-.14.54-.29,1.08-.44,1.62L186.57,294.6q-16.26,60-32.54,120.09a5.65,5.65,0,0,0,.36,4.12q11.94,25.92,23.8,51.87c1.24,2.72,1,2.31,3.14,1.17a70.68,70.68,0,0,1,47.94-6.8c43.25,8.72,68.32,55,52,96.11a70.71,70.71,0,0,1-28.09,34c-1.08.69-2,1.24-2,2.89.1,10.24,0,20.48.06,30.72,0,1.89,0,1.91,2.07,1.92C258.77,630.73,264.21,630.72,269.65,630.72Z" fill="#fff"/><path d="M449,231.58a13,13,0,1,0-.73-26c-2.32.15-2.54,0-2.89-2.37-.22-1.5-.46-3-.65-4.51a2.41,2.41,0,0,0-2-2.31,81.66,81.66,0,0,1-43.06-28.46,3.89,3.89,0,0,0-2.34-1.49c-3.9-.86-7.79-1.76-11.66-2.76a5.65,5.65,0,0,0-3.9.35,80.59,80.59,0,0,1-33.6,6.7,82.2,82.2,0,0,1-39.22-10.41c-1.82-1-1.52-1.22-3.09.58a78.56,78.56,0,0,0-13.21,21c-.78,1.84-1.45,3.72-2.15,5.59-.84,2.25-1,2.37-3.29,1.79l-.7-.18a13,13,0,0,0-6.41,25.11,15.19,15.19,0,0,0,3.8.43c1.84.05,2.17.4,2.34,2.26,0,.32,0,.64,0,1a74.93,74.93,0,0,0,5.27,25.7c4.16,10.7,10.43,20.11,17.54,29,5.49,6.88,11.48,13.33,17.17,20a98.26,98.26,0,0,1,8.38,11.09,54.55,54.55,0,0,1,3.64,7c.88,2,.63,4.09,1.09,6.11a17.32,17.32,0,0,0,34.2-2.61,7,7,0,0,1,1.24-3.53,43.28,43.28,0,0,1,7.57-8.31,187.52,187.52,0,0,1,15.52-11.67,227,227,0,0,0,18.29-14c9.39-8.17,17.3-17.49,22.5-28.93a78.66,78.66,0,0,0,4.86-14.27c.56-2.35.65-2.37,3.11-2.16Z" fill="#fce2d8"/><path d="M105.38,630.72h18.72c2.07,0,2.11,0,2.31-2.06A28.83,28.83,0,0,1,157.94,603c.32,0,.63.11.95.13.51,0,.76-.23.64-.71s-.38-1.22-.58-1.83a46.19,46.19,0,0,1-1.6-22A47,47,0,0,1,209,539.48c18.3,2.08,31.12,12,38.63,28.75,3.07,6.84,3.9,14.13,3.66,21.57,0,.84-.46,2,.29,2.45s1.53-.61,2.22-1.08a68.19,68.19,0,0,0,28.31-68.56c-7-38.91-46.31-63.94-84.52-53.87a68.41,68.41,0,0,0-45.76,92.91c1.24,2.92.86,3.51-2.27,3.69h-.24A64.39,64.39,0,0,0,130.57,569a68.45,68.45,0,0,0-45.65,59.77c-.14,1.84-.13,1.89,1.75,1.9C92.9,630.73,99.14,630.72,105.38,630.72Z" fill="#e8c98f"/><path d="M376.66,116.4c-10.06.15-20.43,4.56-28.85,13.44-1.82,1.92-1.8,2,.79,2.56l32.9,7.72a13.54,13.54,0,0,1,1.84.52,1.29,1.29,0,0,1,.84,1.55,1.38,1.38,0,0,1-1.53,1.22,13.33,13.33,0,0,1-2.11-.42l-76.77-18c-3.34-.79-6.68-1.64-10.06-2.26a7.83,7.83,0,0,0-8.76,5.13,8,8,0,0,0,3.51,9.55,11.29,11.29,0,0,0,3.36,1.23l27.07,6.35L440.73,173.5c8.87,2.08,17.73,4.2,26.61,6.2,4.18.94,8-1.57,9.1-5.82a7.6,7.6,0,0,0-5-9.56c-.83-.28-1.7-.44-2.56-.64q-22.64-5.31-45.28-10.58a3.32,3.32,0,0,1-2.85-3C416.55,130.31,399.27,116.43,376.66,116.4Z" fill="#edc062"/><path d="M354.35,404.08v.08h23c2.08,0,4.16,0,6.23,0,1.12,0,1.59-.26,1.36-1.52-.34-1.88-.49-3.8-.73-5.7q-1.76-13.91-3.52-27.81-2.07-16.28-4.15-32.57c-.54-4.28-1.08-8.56-1.64-12.84,0-.3-.15-.78-.34-.85-.47-.18-.58.36-.8.65s-.25.41-.39.61c-8.52,12.7-26.41,12.47-34.51-.45-.25-.41-.46-.85-.75-1.22s-.57-.26-.71.12a7,7,0,0,0-.24,1.17q-1.76,10.27-3.51,20.55l-9.44,55c-.2,1.18-.37,2.37-.58,3.55-.15.8.07,1.24,1,1.21.48,0,1,0,1.44,0Z" fill="#efd2e6"/><path d="M248.27,590.23h0c0-.72,0-1.44,0-2.16,0-1.74,0-1.74-1.85-1.43a5,5,0,0,1-6.09-5.69,5.16,5.16,0,0,1,5.26-4.31c1.57,0,1.6,0,1.22-1.51-.26-1-.62-2-.88-3a3.57,3.57,0,0,0-2.56-2.78,4.75,4.75,0,0,1-3-5.62c.07-.39.28-.76.33-1.15.18-1.38-.57-2-1.95-1.6a5,5,0,0,1-5.69-1.36,4.81,4.81,0,0,1-.75-5.58c.24-.51.59-1,.09-1.53a1.19,1.19,0,0,0-1.71-.2,1.88,1.88,0,0,1-.44.18c-3.5,1.19-6.52-.72-6.87-4.38-.08-.8,0-1.55-.95-2a44.87,44.87,0,0,0-7-2.49c-.22-.06-.48-.15-.61.12,0,.1.05.31.14.43s.43.48.6.74a5.1,5.1,0,0,1-1.28,7,5.06,5.06,0,0,1-5.85-8.27c.39-.32,1.31-.38,1-1.06-.19-.48-1-.22-1.54-.31-.84-.13-1.28.51-1.85.93a5.08,5.08,0,0,1-6.23.1,7.2,7.2,0,0,0-.95-.73,1.61,1.61,0,0,0-2,.29c-.43.63.6.68.87,1.09a6.34,6.34,0,0,0,.5.52,5.16,5.16,0,0,1,.11,6.43,5.06,5.06,0,0,1-8.89-4.29c.11-.46.34-.89.5-1.35.07-.21.19-.49.11-.65-.22-.39-.56-.14-.83,0-1.63.66-3.24,1.35-4.87,2a3.14,3.14,0,0,0-2.06,2.36c-.7,2.73-2.8,4-5.58,3.82-2.32-.18-2.88.39-2.78,2.81.15,3.37-1.75,5.62-5,5.65a2.3,2.3,0,0,0-2.3,1.24,6.16,6.16,0,0,0-1.08,2.62,3.81,3.81,0,0,1-1,2.64c-2,1.76-2.47,4.22-3.19,6.57-.56,1.85-.52,1.86,1.28,2.75a5.06,5.06,0,0,1-.66,9.44c-.74.23-1.76-.07-2.17.72s-.06,1.73,0,2.6c.06.64.19,1.27.19,1.91,0,1.22.49,1.72,1.76,2.06a5,5,0,0,1,2.53,8.17c-.25.31-.6.54-.83.86-.35.48,0,1.93.49,2.12s.59-.54.91-.8.41-.49.64-.71a5.06,5.06,0,0,1,8.4,4.82,5,5,0,0,1-4.62,3.88,4.93,4.93,0,0,1-5-3.32,10.34,10.34,0,0,1-.35-1.63c-.06-.32-.14-.74-.53-.6-1.57.58-3-.3-4.47-.42s-1.54-.15-1.85,1.53a5.08,5.08,0,0,1-4.65,4.43,4.78,4.78,0,0,1-5.13-3.47c-.42-1.4-1-1.35-2-.92A25.85,25.85,0,0,0,133.9,617c-.49.7-1.48,1.48-1.11,2.24.29.58,1.41-.11,2.18-.12a5,5,0,0,1,.86,10,4.93,4.93,0,0,1-5.07-2.49c-.16-.26-.46-.68-.62-.65-.45.09-.33.61-.45,1a1.84,1.84,0,0,0,.4,2c1,1.28,2,2.17,3.77,1.86a13.56,13.56,0,0,1,2.87,0,3.18,3.18,0,0,0,3-1.33,4.7,4.7,0,0,1,7.5-.2,3.8,3.8,0,0,0,3.69,1.52,16.34,16.34,0,0,1,2.64,0,3.35,3.35,0,0,0,3.23-1.46,4.66,4.66,0,0,1,7.34-.13,4.06,4.06,0,0,0,3.91,1.57,19.39,19.39,0,0,1,2.4,0,3.35,3.35,0,0,0,3.26-1.39,4.67,4.67,0,0,1,7.34-.24,4.24,4.24,0,0,0,4.11,1.64,18.35,18.35,0,0,1,2.4,0,3.19,3.19,0,0,0,3-1.33,4.68,4.68,0,0,1,7.49-.19,3.81,3.81,0,0,0,3.69,1.52,17.12,17.12,0,0,1,2.64,0,3.35,3.35,0,0,0,3.23-1.46,4.68,4.68,0,0,1,7.34-.13,4.05,4.05,0,0,0,3.91,1.58,18.34,18.34,0,0,1,2.4,0,3.37,3.37,0,0,0,3.26-1.39,4.65,4.65,0,0,1,7.33-.24,4.28,4.28,0,0,0,4.12,1.63,27.4,27.4,0,0,1,3.12,0,2.11,2.11,0,0,0,2-1,4.76,4.76,0,0,1,5.67-2c1,.32,1.5.16,1.46-1-.06-1.36,0-2.72,0-4.08,0-.78.34-1.74-.29-2.29s-1.33.31-2,.24a4.11,4.11,0,0,0-.48,0,5,5,0,0,1-5.17-5.11,5.12,5.12,0,0,1,5.35-5c.84,0,1.76,1,2.44.16.54-.66.18-1.7.21-2.58s0-1.76,0-2.64c0-2.11,0-2.08-2.15-1.82a4.9,4.9,0,0,1-5-2.19,4.78,4.78,0,0,1-.25-5.23,4.71,4.71,0,0,1,4.77-2.58,5.09,5.09,0,0,1,1.41.23c.84.31,1.2,0,1.19-.82S248.27,591.19,248.27,590.23Z" fill="#fff"/><path d="M363.85,518.9h0c-.21-6.63-.42-13.27-.62-19.9q-.84-29.13-1.67-58.27c0-.72-.1-1.44-.09-2.16,0-1.12-.48-1.56-1.6-1.54-2.24,0-4.48,0-6.72,0-1.85,0-1.87.06-1.94,1.88-.12,3.44-.21,6.87-.32,10.31q-.67,21.34-1.35,42.68-1.09,33.09-2.2,66.17c-.4,12.31-.76,24.62-1.16,36.92a23.36,23.36,0,0,0,.18,5c.59,3.22,1.22,6.44,1.67,9.68.91,6.55,2.92,13,2.59,19.68-.05,1.09.5,1.35,1.46,1.34,2.56,0,5.12,0,7.68,0,1.11,0,1.65-.33,1.55-1.5a26.82,26.82,0,0,1,.81-7.34c1-5.42,1.84-10.87,2.83-16.3a63,63,0,0,0,1.1-14.06c-.41-9.83-.64-19.66-.93-29.49Q364.47,540.48,363.85,518.9Z" fill="#fff"/><path d="M384.13,336.42a90.72,90.72,0,0,0,9.91-1.13,103.69,103.69,0,0,0,33.81-12.42c13.75-7.8,25.74-17.83,36.64-29.2a216.39,216.39,0,0,0,24-29.9c1.2-1.8.9-1.59-.38-2.66q-5.16-4.3-10.36-8.55c-1.43-1.17-1.46-1.17-2.44.34q-5,7.65-10.68,14.77c-10.38,13-21.94,24.79-35.58,34.41-9.95,7-20.64,12.48-32.53,15.4a79.84,79.84,0,0,1-16.86,2.09c-2.1.06-2.2.23-1.95,2.24.48,3.81.94,7.62,1.46,11.42C379.59,336.55,379.62,336.54,384.13,336.42Z" fill="#efd2e6"/><path d="M329.5,336.38c2.47.14,2.47.14,2.87-2.28q1.07-6.38,2.15-12.76c.28-1.68.27-1.71-1.42-1.8A85.37,85.37,0,0,1,320,318a92,92,0,0,1-31.49-13.65c-13.28-8.73-24.61-19.61-34.85-31.68A196.51,196.51,0,0,1,239,253.1c-1-1.48-1-1.49-2.28-.46-3.59,2.94-7.12,5.95-10.75,8.83-1,.82-1,1.46-.25,2.35.3.37.53.8.8,1.19a214.45,214.45,0,0,0,29.13,34.64c11.09,10.63,23.23,19.81,37.08,26.6A96.71,96.71,0,0,0,329.5,336.38Z" fill="#efd2e6"/><path d="M518.86,248.14c1,.05,1.51.1,2.07.11,2.14,0,3.5-1.07,3.68-2.94a3.43,3.43,0,0,0-3.18-3.79,9.09,9.09,0,0,0-5.17.46c-1.46.64-3,1.08-4.51,1.61-1,.35-1.79.2-2.15-.83s.24-1.66,1.18-2l1.58-.57c5.28-1.85,10.57-3.66,15.83-5.56a3.26,3.26,0,0,0,2.23-4.36,3.37,3.37,0,0,0-4.51-2c-5.75,2.12-11.82,3.48-17,7.1-1.6,1.12-2.59,1-3.09,0s-.06-1.6,1.52-2.56q5.73-3.5,11.49-7c.62-.37,1.25-.72,1.84-1.14a3.23,3.23,0,0,0,1.11-4.58,3.3,3.3,0,0,0-4.79-1c-.48.28-.93.62-1.39.94L502,229.46c-.84.58-1.72,1-2.57.09s-.23-1.64.27-2.38c1.26-1.85,2.54-3.69,3.79-5.54.94-1.39,1.94-2.75,2.73-4.23a3.26,3.26,0,0,0-5.14-3.83,13.52,13.52,0,0,0-1.78,2.25c-2.39,3.5-4.72,7-7.13,10.53-1.11,1.61-1.95,1.63-3.21.18-.79-.9-1.48-1.89-2.27-2.8-1.47-1.69-3.28-1.93-4.84-.69s-1.69,3.12-.37,4.9a27.39,27.39,0,0,0,3,3.73c2.45,2.31,3.13,4.85,1.59,7.91-.11.21-.09.48-.19.69a1.25,1.25,0,0,0,.5,1.66q5.75,4.72,11.47,9.47a1.07,1.07,0,0,0,1.65,0c.87-.82,1.88-1.51,2.7-2.37a5.63,5.63,0,0,1,5.13-1.84C511.27,247.63,515.27,247.85,518.86,248.14Z" fill="#fce2d8"/><path d="M101.68,486.11a1,1,0,0,0,1.09-.51c.34-.54.67-1.09,1-1.63q17.86-29.67,35.7-59.36c.39-.64,1.05-1.19.94-2.07-.8.25-1.23.94-1.77,1.48q-27.29,27.3-54.57,54.62c-.28.28-.58.56-.84.85-1.08,1.19-1.07,1.33.53,1.76,5.78,1.58,11.56,3.12,17.34,4.68Z" fill="#fff"/><path d="M148.73,461.27h-.55c0-5.92,0-11.83,0-17.75,0-6.16-.1-12.31-.17-18.47,0-.28.14-.69-.26-.8s-.48.3-.57.59c-.18.61-.34,1.23-.51,1.85q-3.51,13-7,25.9-5.23,19.32-10.44,38.64c-.58,2.14-.57,2.16,1.56,2.74q8,2.17,16,4.32c2.16.58,2.2.56,2.18-1.76,0-3.2-.16-6.39-.17-9.59C148.71,478.39,148.73,469.83,148.73,461.27Z" fill="#fff"/><path d="M124.82,492.39a.87.87,0,0,0,1.14-.71c.13-.46.26-.92.39-1.38L144,425.1c.12-.46.24-.93.33-1.4,0-.14,0-.39-.09-.44-.25-.14-.4.08-.53.27-.29.47-.59.95-.88,1.43l-10.38,17.25q-13,21.56-25.94,43.12c-1.06,1.76-1,1.8.86,2.32q8.2,2.23,16.42,4.43Z" fill="#fff"/><path d="M212.46,202.48a10.84,10.84,0,0,0-2.11.21c-4.45,1.14-8.42,3.41-12.44,5.51a3.48,3.48,0,0,0-1.2,4.84,3.8,3.8,0,0,0,4.72,1.77,19.89,19.89,0,0,0,2-.9l8-3.85a1.54,1.54,0,0,1,2.14.33,1.34,1.34,0,0,1-.38,2.08c-.85.56-.52,1.15-.34,1.86a6.27,6.27,0,0,1-1,5.68,1.91,1.91,0,0,0-.33,2.16,6.09,6.09,0,0,1-.29,4.88c-.53,1.22-2,1.81-2.31,3s.34,2.5-.17,3.75c0,.07,0,.16-.06.23a2.06,2.06,0,0,0,.35,2.21q4.43,6.25,8.79,12.56c.6.87,1.1,1,1.9.27,1.82-1.56,3.63-3.13,5.55-4.57,1.06-.79.92-1.4.25-2.34-1.95-2.73-3.82-5.51-5.72-8.28-2-2.94-2-2.94,1-4.84a14.37,14.37,0,0,0,6.14-16.07C225.08,206.7,219.47,202.47,212.46,202.48Z" fill="#fce2d8"/><path d="M151.47,462.37h0l.47,35.24c0,.32,0,.64,0,1s-.07.87.45,1c.35.07.53-.27.69-.54l.5-.82A65.93,65.93,0,0,1,164.88,484a3.27,3.27,0,0,0,.95-3.77q-7-26.4-13.87-52.82c-.12-.46-.26-.92-.42-1.37,0-.13-.17-.32-.26-.33-.36,0-.28.29-.29.5,0,.56,0,1.12,0,1.68Q151.24,445.11,151.47,462.37Z" fill="#fff"/><path d="M389.16,618.89c1.91-.12,3.83-.21,5.73-.37a12.25,12.25,0,0,0,1.83-.43c-.23-.75-1-.68-1.52-1L395,617c-7.75-3.5-14.5-8.12-18.06-16.27a1.6,1.6,0,0,0-1.74-.95c-1.6,0-3.2.05-4.79,0-1.12,0-1.54.46-1.7,1.5-.4,2.6-.82,5.21-1.33,7.79a2.55,2.55,0,0,0,.85,2.55,23.34,23.34,0,0,0,9.59,5.69A37,37,0,0,0,389.16,618.89Z" fill="#fce2d8"/><path d="M322.57,618.68a41.21,41.21,0,0,0,9.64-1,24,24,0,0,0,11.71-6.2,2.79,2.79,0,0,0,.94-2.77c-.49-2.51-.95-5-1.33-7.55-.15-1-.57-1.4-1.54-1.39-1.6,0-3.2.05-4.79,0a1.92,1.92,0,0,0-2.12,1.48,18.5,18.5,0,0,1-2.82,4.71,35.93,35.93,0,0,1-12.77,9.91c-1,.5-2,.93-3.05,1.39-.29.13-.66.2-.66.57s.46.37.72.39A55.11,55.11,0,0,0,322.57,618.68Z" fill="#fce2d8"/><path d="M319.57,626.54H294.38c-.64,0-1.28,0-1.92,0-.43,0-.83.17-.9.62a5.24,5.24,0,0,0,.07,2.84c.41,1,1.41.42,2.15.55a2.85,2.85,0,0,0,.48,0h50.61c.56,0,1.12,0,1.68,0s.86-.11.94-.56a4.78,4.78,0,0,0,0-3.05c-.36-.69-1.31-.35-2-.39-.48,0-1,0-1.44,0Z" fill="#53456a"/><path d="M156,430.05a1.5,1.5,0,0,0,.08,1.1q4.54,17.37,9.07,34.74c1.13,4.32,2.29,8.64,3.39,13,.25,1,.57,1.18,1.41.53q2.36-1.84,4.81-3.57c1.84-1.31,1.86-1.28.91-3.36l-18.44-40.27c-.27-.58-.56-1.15-.85-1.71A2.6,2.6,0,0,0,156,430.05Z" fill="#fff"/><path d="M392.39,626.84H366.52c-2.18,0-2.2,0-2.18,2,0,1.79,0,1.79,1.92,1.83h51.27c.48,0,1,0,1.44,0,.86,0,1.38-.26,1.33-1.22,0-.56,0-1.12,0-1.68,0-.71-.4-1-1.05-1H392.39Z" fill="#53456a"/><path d="M480.37,241a1.24,1.24,0,0,0-1.07.64c-1,1.16-1.95,2.32-2.9,3.5-1.13,1.39-1.14,1.43.24,2.57q8.75,7.25,17.52,14.47c.18.15.38.29.56.45.52.48,1,.42,1.4-.13,1.11-1.36,2.2-2.74,3.37-4,.69-.77.64-1.28-.16-1.94q-9.07-7.42-18.1-14.9C480.93,241.38,480.6,241.16,480.37,241Z" fill="#efd2e6"/><path d="M219.4,263c.36-.27.81-.59,1.23-.95l10.52-8.68c2.4-2,4.78-4,7.21-5.92.82-.66.84-1.16.15-1.92-1-1.12-1.92-2.34-2.91-3.49s-1.12-1.29-2.42-.22q-5.93,4.85-11.82,9.74c-2,1.67-4,3.38-6.1,5-.82.65-.83,1.16-.15,1.92,1.12,1.24,2.14,2.58,3.21,3.87A1.24,1.24,0,0,0,219.4,263Z" fill="#efd2e6"/><path d="M388.58,623.86h12.48c3.36,0,6.72,0,10.08,0,.27,0,.71.15.7-.35,0-.15-.31-.34-.51-.42-2.47-.92-4.95-1.82-7.42-2.74a3.44,3.44,0,0,0-2.12,0,49.76,49.76,0,0,1-10.43,1.45c-8.68.31-16.93-.95-23.87-6.77-.78-.65-1.07-.34-1.22.48l-1,5.9c-.42,2.39-.39,2.45,2,2.45Z" fill="#efd2e6"/><path d="M323.45,623.56h21.08c.56,0,1.12,0,1.68,0,.83,0,1.14-.36,1-1.18-.42-2.27-.79-4.56-1.24-6.83-.26-1.33-.38-1.39-1.43-.52a28.51,28.51,0,0,1-13.88,6,49.89,49.89,0,0,1-19.26-.75,6.59,6.59,0,0,0-4.18.25c-1.84.76-3.75,1.34-5.63,2-.43.15-1.16.22-1.1.68s.78.29,1.19.29Q312.55,623.57,323.45,623.56Z" fill="#efd2e6"/><path d="M204.71,227.53c2.45.11,4-1.21,4.06-3.24,0-1.26-.33-1.6-1.66-1.68a18.49,18.49,0,0,1-1.9-.19c-5.26-.87-10.58-1.44-15.79-2.63a1.17,1.17,0,0,0-1.5.78,3.25,3.25,0,0,0,2.1,4.56,32.69,32.69,0,0,0,4,.73Z" fill="#fce2d8"/><path d="M201.6,235.29c2.62.08,4-1,4.26-2.86.15-1.28-.16-1.73-1.44-1.93-4.16-.66-8.33-1.32-12.5-1.94-1.84-.27-2.69.63-2.33,2.46a3.17,3.17,0,0,0,2.63,2.75C195.53,234.34,198.83,234.84,201.6,235.29Z" fill="#fce2d8"/><path d="M595.12,452.57c.07-1.07.08-1.79.16-2.5.25-2.07.71-2.44,2.83-2.1a31.84,31.84,0,0,1,8.23,2.45c7.23,3.32,11.15,9,12.15,16.84a26.81,26.81,0,0,1,.25,6.68c-.24,2-.69,2.42-2.63,2.12a27.37,27.37,0,0,1-13.73-5.78c-4.16-3.46-6.1-8.09-6.87-13.3C595.3,455.42,595.23,453.82,595.12,452.57Z" fill="#151d38"/><path d="M556.56,420.18a5.78,5.78,0,1,1,5.74,5.82A5.82,5.82,0,0,1,556.56,420.18Zm8.68.05a2.9,2.9,0,1,0-5.79-.13,2.9,2.9,0,0,0,5.79.13Z" fill="#151d38"/><path d="M11.68,420.13A5.9,5.9,0,0,1,5.93,426a5.83,5.83,0,1,1-.06-11.66A5.91,5.91,0,0,1,11.68,420.13ZM5.92,423a2.91,2.91,0,0,0,2.82-2.94,3.05,3.05,0,0,0-3-2.83,3,3,0,0,0-2.78,3A2.8,2.8,0,0,0,5.92,423Z" fill="#151d38"/><path d="M261.45,154.47a5.79,5.79,0,0,1-11.57.32,5.75,5.75,0,0,1,5.75-6A5.68,5.68,0,0,1,261.45,154.47Zm-2.9.16a2.92,2.92,0,0,0-2.83-2.95,2.89,2.89,0,1,0-.11,5.78A2.92,2.92,0,0,0,258.55,154.62Z" fill="#151d38"/><path d="M116,275.9a3.66,3.66,0,0,1-.07,7.31,3.66,3.66,0,1,1,.07-7.31Zm.56,3.63a.66.66,0,0,0-.57-.65.63.63,0,0,0-.75.7.65.65,0,0,0,.81.65C116.42,280.17,116.54,279.85,116.58,279.52Z" fill="#151d38"/><path d="M619.83,363.29a3.72,3.72,0,0,1-7.44.2,3.72,3.72,0,1,1,7.44-.2Zm-3.07,0c-.08-.35-.25-.69-.74-.63a.65.65,0,0,0,.16,1.3A.63.63,0,0,0,616.76,363.3Z" fill="#151d38"/><path d="M637.28,504.54a2.46,2.46,0,0,1-2.52-2.61,2.62,2.62,0,0,1,2.56-2.62A2.7,2.7,0,0,1,640,502.1,2.56,2.56,0,0,1,637.28,504.54Z" fill="#151d38"/><path d="M655.95,406a2.6,2.6,0,0,1,2.62,2.56,2.64,2.64,0,1,1-5.27,0A2.59,2.59,0,0,1,655.95,406Z" fill="#151d38"/><path d="M296.9,0c3,2.5,6.57,4.2,9.82,6.36.64.43,1,0,1.46-.35,1.2-1.06,2.36-2.16,3.58-3.2,1.76-1.5,2.79-1.17,3.32,1.11,1.48,6.3,2.92,12.61,4.38,18.91.14.61.13,1.58.69,1.64s.78-.9,1.08-1.44q3.72-6.85,7.4-13.72c.27-.49.52-1,.81-1.47,1.07-1.77,2-1.86,3.24-.26.63.82,1.19,1.71,1.78,2.56,1.73,2.5,1.73,2.5,4.51,1.57,2.58-.86,5.15-1.73,7.73-2.57.81-.26,1.66-.76,2.47,0s.47,1.59.24,2.45c-.82,3.09-1.58,6.19-2.44,9.27a1.73,1.73,0,0,0,1,2.33,47.65,47.65,0,0,1,4.11,2.46c1.45,1,1.46,2,.05,3s-2.88,2-4.33,3l-21.71,15c-1.78,1.23-1.78,1.24-.69,3.15q2.84,5,5.69,10c.28.49.58,1,.81,1.47.41.91.35,1.76-.65,2.23s-1.55-.1-2-.84c-1.84-3.18-3.63-6.4-5.48-9.57-.68-1.17-1-2.88-2.19-3.31s-2.47.79-3.69,1.34Q305,57,292.18,63a16.6,16.6,0,0,1-1.53.69c-1.52.52-2.31,0-2.4-1.58-.08-1.35,0-2.72,0-4.08,0-2.3,0-2.31-2.14-2.93L278,52.73a8.75,8.75,0,0,1-1.8-.64,1.38,1.38,0,0,1-.41-2.23A8.64,8.64,0,0,1,277,48.72l6.53-5.66c1.56-1.36,1.56-1.36.75-3.16-.53-1.17-1.09-2.31-1.6-3.49-1-2.24-.49-3,1.91-2.91,3.76.11,7.51.3,11.26.45,2,.08,4,.16,6,.16.58,0,1.46.43,1.69-.3s-.67-1-1.11-1.41q-6.39-6.16-12.81-12.29c-.35-.33-.7-.66-1-1-1.81-1.82-1.63-2.72.73-3.53,1.36-.46,2.73-.9,4.12-1.27a1.74,1.74,0,0,0,1.48-2c-.14-3.11-.11-6.24-.26-9.35A4.56,4.56,0,0,1,295.46,0Z" fill="#151d38"/><path d="M283.44,47.5a4.61,4.61,0,0,0,2.12-.23l7.23-1.68q10.85-2.53,21.69-5.07c1.81-.43,1.8-.47.9-2.12-.08-.14-.16-.27-.24-.41l-15.77-27.7c-.24-.42-.47-.84-.72-1.24-.12-.19-.26-.42-.54-.34s-.25.36-.25.58c0,1.68,0,3.36.05,5a2,2,0,0,1-1.65,2.26c-1.15.33-2.28.74-3.42,1.09-.63.19-.77.5-.31,1s.91.9,1.37,1.34l14.2,13.6c.4.39.81.77,1.2,1.18a1.46,1.46,0,0,1,.37,1.75,1.57,1.57,0,0,1-1.57.89c-.48,0-1,0-1.44,0-5.51-.24-11-.46-16.53-.75-4-.21-4-.24-2.38,3.54l.09.22c.85,2,.77,2.2-.85,3.7-1.2,1.12-2.74,1.89-3.5,3.45h-.09Z" fill="#c47659"/><path d="M319.42,38.45a13.79,13.79,0,0,1,1-1.33q6.94-7.29,13.91-14.55,3.64-3.81,7.28-7.62c.21-.22.52-.67.45-.77-.2-.28-.57-.11-.87,0-1.51.51-3,1-4.54,1.53a2,2,0,0,1-2.67-.91c-.6-.94-1.24-1.86-1.91-2.76-.81-1.09-.87-1.1-1.54.14q-4.4,8.1-8.76,16.23c-.3.56-.62,1.12-.93,1.67a1.51,1.51,0,0,1-1.59.84A1.49,1.49,0,0,1,318,29.65c-.29-1.24-.61-2.48-.9-3.72-1.41-6.06-2.81-12.13-4.24-18.18-.32-1.36-.43-1.38-1.44-.55-.8.66-1.59,1.34-2.32,2.07a2.09,2.09,0,0,1-3,.29C304.76,8.67,303.38,7.86,302,7c-.26-.16-.57-.46-.83-.17s.06.58.2.85.4.69.6,1l15.74,27.69c.28.49.54,1,.86,1.44C318.72,38,319,38.14,319.42,38.45Z" fill="#c47659"/><path d="M292,59.71l1.41-.63,24.84-11.41q.65-.3,1.29-.63a.55.55,0,0,0,.3-.79,13.78,13.78,0,0,0-1.87-3c-.65-.65-1.67,0-2.5.19-7.32,1.68-14.63,3.39-21.95,5.09l-8.64,2a1.48,1.48,0,0,0-1,.59,8.83,8.83,0,0,0,1.06.47q2.29.69,4.6,1.33a2,2,0,0,1,1.67,2.26c-.06,1.28,0,2.56,0,3.84C291.2,59.39,291.23,59.82,292,59.71Z" fill="#c47659"/><path d="M323.11,45c.5-.33,1-.66,1.56-1l22.06-15.23c.33-.23.65-.46,1-.67.78-.5,1-1,0-1.52s-1.8-1-2.67-1.59c-1.77-1.1-1.85-1.29-1.36-3.29.38-1.55.78-3.09,1.17-4.64.05-.22.06-.48-.23-.54a.6.6,0,0,0-.42.16,8.5,8.5,0,0,0-.69.66Q332.61,28.75,321.7,40.16c-.47.49-1.25.93-.77,1.79a10,10,0,0,0,1.9,3C322.88,45,323,45,323.11,45Z" fill="#c47659"/><path d="M411.27,45.88a2.47,2.47,0,0,1-2.46,2.66A2.61,2.61,0,0,1,406,46.16a2.75,2.75,0,0,1,2.62-2.85A2.64,2.64,0,0,1,411.27,45.88Z" fill="#151d38"/><path d="M269,102.12a2.57,2.57,0,0,1,2.68,2.48,2.63,2.63,0,1,1-5.26.12A2.57,2.57,0,0,1,269,102.12Z" fill="#151d38"/><path d="M260.34,368.71A7.72,7.72,0,0,1,259,372.2a24.07,24.07,0,0,1-2.09,2.62c-.6.65-.5,1,.21,1.44,5.16,3.55,4.85,9.36-.63,12.47a18.25,18.25,0,0,1-5.86,2c-1.06.19-1.22.62-.41,1.36,2.35,2.13,2.22,6.38-.39,9.08a14.06,14.06,0,0,1-3.22,2.48,27.37,27.37,0,0,1-5.54,2.25c-1.06.32-2.75.31-3.07,1-.49,1,1.19,1.58,1.75,2.51a6.41,6.41,0,0,1-2.54,9,15.53,15.53,0,0,1-6.72,1.53c-4.31.18-8.63.07-12.94.41a26.46,26.46,0,0,0-5.65,1,11.29,11.29,0,0,0-5.37,3.45c-2.52,2.89-5.09,5.74-7.66,8.59-.34.38-.63,1.1-1.3.78a3.12,3.12,0,0,1-1.56-1.44c-.23-.5.3-.85.6-1.19,2.23-2.51,4.34-5.15,6.73-7.49,3.16-3.09,4.24-6.85,4.26-11.08,0-4.65-.81-9.23-1.11-13.85a24.64,24.64,0,0,1,.23-5.73c1-6.11,7.42-7.31,10.7-4.28,1.1,1,1.24.92,1.47-.5a39.86,39.86,0,0,1,1.34-6.32,15,15,0,0,1,2.65-5.07c2.49-2.92,5.61-3.45,9-1.54,1.16.66,1.18.66,1.35-.7a18.57,18.57,0,0,1,1.87-6.89,7,7,0,0,1,4.93-3.83,6.24,6.24,0,0,1,6.74,2.57c.64.92,1.09.91,1.79.07a12.66,12.66,0,0,1,3.79-3.27,5.24,5.24,0,0,1,6.6.82A5.14,5.14,0,0,1,260.34,368.71Z" fill="#151d38"/><path d="M210.43,411.73c0,.88,0,1.76,0,2.64,0,.3,0,.75.2.87.45.3.67-.21.93-.46s.54-.59.81-.89l28.88-32.4c.43-.48.85-1,1.29-1.42a.86.86,0,0,1,1-.33,1.59,1.59,0,0,1,.75,2.72c-.25.31-.53.59-.8.89l-28.73,32.22c-.48.54-1,1.07-1.4,1.64a1.82,1.82,0,0,0-.17.67,3.12,3.12,0,0,0,.7,0c4.91-.83,9.88-.67,14.83-.73a22.63,22.63,0,0,0,5.46-.68c1.7-.45,3.16-1.26,3.45-3.22s-.95-3.09-2.44-4a15.2,15.2,0,0,0-4-1.59c-.77-.22-1.35-.67-1.31-1.48s.7-1.38,1.6-1.46c.4,0,.8,0,1.19-.1a39.45,39.45,0,0,0,11.1-2.84,10.1,10.1,0,0,0,4.2-3.09c1.44-2,1.19-3.74-.76-5.18a8.15,8.15,0,0,0-1.66-.94,19.2,19.2,0,0,0-2.48-.87c-.95-.26-2-.41-1.93-1.7.09-1.51,1.34-1.3,2.35-1.38.64,0,1.27-.12,1.91-.15a26,26,0,0,0,7.06-1.21,10.4,10.4,0,0,0,3.6-1.85,4.11,4.11,0,0,0,1.55-4,3.61,3.61,0,0,0-2.87-2.88c-.75-.24-1.58-.25-2.33-.49a1.4,1.4,0,0,1-.7-2.43,22.79,22.79,0,0,1,1.78-1.6,14.46,14.46,0,0,0,3.55-4.48,2.41,2.41,0,0,0-3.57-3.13,9.61,9.61,0,0,0-2.53,2.18c-.86,1-1.66,2.15-2.44,3.26-.43.61-.86,1.2-1.7,1.09s-1.14-.73-1.35-1.48a10.39,10.39,0,0,0-.85-2.23,3.76,3.76,0,0,0-6.37-.63,9.25,9.25,0,0,0-1.85,4.37,30.23,30.23,0,0,0-.36,8.6c0,.48.17,1,.17,1.43a1.39,1.39,0,0,1-1.19,1.55,1.33,1.33,0,0,1-1.55-.84c-.19-.44-.35-.89-.54-1.33A12.43,12.43,0,0,0,231,379c-1.74-2-3.7-2.06-5.59-.2a10.13,10.13,0,0,0-2.43,4.35,35.28,35.28,0,0,0-1.51,10.64c0,.8,0,1.6-.05,2.4a1.26,1.26,0,0,1-1,1.2,1.35,1.35,0,0,1-1.65-.65c-.27-.48-.44-1-.68-1.53a10.65,10.65,0,0,0-2.56-3.72,3.42,3.42,0,0,0-5.66,1.38,7.52,7.52,0,0,0-.48,2.58,47,47,0,0,0,.33,7.66C210,406,210.41,408.85,210.43,411.73Z" fill="#edc062"/><path d="M221.69,327.34a2.51,2.51,0,0,1-2.67-2.48,2.57,2.57,0,0,1,2.41-2.75,2.62,2.62,0,1,1,.26,5.22Z" fill="#151d38"/><path d="M299.72,206.38a10.4,10.4,0,0,1,10.34-10.62,10.55,10.55,0,0,1,10.74,10.52,10.71,10.71,0,0,1-10.53,10.57A10.55,10.55,0,0,1,299.72,206.38Z" fill="#e8384a"/><path d="M422.08,228.08a10.46,10.46,0,0,1-10.4-10.58,10.55,10.55,0,1,1,21.09.33A10.38,10.38,0,0,1,422.08,228.08Z" fill="#e8384a"/><path d="M363,216.44c-9.52-.11-17.15-6-20.69-14.51-.84-2-.23-2.89,2-2.73,4.46.32,8.91.73,13.36,1.12l20.27,1.8c1,.09,2.07.16,3.09.36,1.43.27,1.81,1.08,1.23,2.43-.06.15-.17.27-.24.41A22.57,22.57,0,0,1,363,216.44Z" fill="#151d38"/><path d="M348.45,202.55l-1.39-.08c-.83,0-1,.32-.63,1,.11.21.24.41.36.62a18.62,18.62,0,0,0,30.54,2.42c.26-.3.65-.62.53-1-.17-.58-.77-.44-1.22-.49-1.27-.12-2.55-.22-3.82-.33Z" fill="#fff"/><path d="M282,192.82a8.16,8.16,0,0,1,1.14.14,1.23,1.23,0,0,1,1,1.22,1.29,1.29,0,0,1-1,1.48,10.94,10.94,0,0,1-1.66.16,5.89,5.89,0,0,0-1.27,11.5c.53.17,1.09.25,1.6.46a1.32,1.32,0,0,1,.76,1.59,1.35,1.35,0,0,1-1.34,1.15,4,4,0,0,1-1.18-.16A8.86,8.86,0,0,1,282,192.82Z" fill="#151d38"/><path d="M458.61,218.52a9,9,0,0,1-8.57,8.94,3.39,3.39,0,0,1-1.64-.21,1.41,1.41,0,0,1-.85-1.56,1.22,1.22,0,0,1,1.05-1.15c.54-.1,1.11-.07,1.66-.15a5.89,5.89,0,0,0,1-11.53c-.38-.12-.78-.16-1.16-.27A1.38,1.38,0,0,1,449,211c.12-1,.8-1.32,1.71-1.26a7.26,7.26,0,0,1,1.41.24A9,9,0,0,1,458.61,218.52Z" fill="#151d38"/><path d="M361.66,226.09A18.59,18.59,0,0,1,351.52,223a6.55,6.55,0,0,1-1.3-1,1.29,1.29,0,0,1-.11-1.75,1.35,1.35,0,0,1,1.87-.49c.42.22.81.51,1.21.76a15.15,15.15,0,0,0,14.6,1.33,8.86,8.86,0,0,1,1.56-.57,1.3,1.3,0,0,1,1.57.77,1.32,1.32,0,0,1-.39,1.72,7.07,7.07,0,0,1-1.67.9A17.93,17.93,0,0,1,361.66,226.09Z" fill="#151d38"/><path d="M366.07,187.37a1.45,1.45,0,0,1-1.15,1.36l-3.21,1c-2.61.78-2.61.78-.61,2.8.67.68,1.39,1.33,2,2,.89,1,1,2,.25,2.51a1.68,1.68,0,0,1-2.36-.34c-1.85-1.88-3.74-3.73-5.52-5.67-1.08-1.17-.82-2.31.63-2.79,2.65-.88,5.34-1.66,8-2.38A1.42,1.42,0,0,1,366.07,187.37Z" fill="#151d38"/><path d="M331.67,191.25a6.81,6.81,0,0,1-.17,1,1.36,1.36,0,0,1-1.43,1,1.4,1.4,0,0,1-1.36-1.14,10.18,10.18,0,0,1-.08-1.18,3,3,0,0,0-5.85-.92c-.14.28-.21.6-.36.88a1.38,1.38,0,0,1-1.81.7c-.83-.27-1-.94-.93-1.72.24-2.48,2.9-4.78,5.69-4.92A6.12,6.12,0,0,1,331.67,191.25Z" fill="#151d38"/><path d="M408.76,193.31a5.91,5.91,0,0,1,5.9,6.39c-.09.95-.35,1.79-1.48,1.8s-1.5-.74-1.51-1.74a5.86,5.86,0,0,0,0-1,2.91,2.91,0,0,0-2.31-2.45,3,3,0,0,0-3.27,1.43c-.24.4-.36.88-.57,1.31a1.34,1.34,0,0,1-1.74.85,1.53,1.53,0,0,1-1-1.89A6,6,0,0,1,408.76,193.31Z" fill="#151d38"/><path d="M422.57,196.08c0,.16,0,.32,0,.48-.11,1.54-.62,2.23-1.63,2.21s-1.37-.6-1.41-2.28c-.09-3.49-1.51-5.47-4.74-6.65-.22-.08-.46-.13-.69-.2a1.4,1.4,0,0,1-1.1-1.81,1.41,1.41,0,0,1,1.85-1.05,9.16,9.16,0,0,1,5.31,3A9.54,9.54,0,0,1,422.57,196.08Z" fill="#151d38"/><path d="M321.44,177.56c.24,0,.48,0,.72,0a1.41,1.41,0,0,1,1.43,1.34,1.39,1.39,0,0,1-1.21,1.53c-.23.05-.48,0-.71.06-3.66.52-5.38,2.07-6.23,5.6-.06.23-.1.47-.15.7-.19.91-.71,1.46-1.67,1.3a1.49,1.49,0,0,1-1.26-1.75,8.7,8.7,0,0,1,.92-3.45A9.24,9.24,0,0,1,321.44,177.56Z" fill="#151d38"/><path d="M564.58,592.7a3.92,3.92,0,1,1,3.9-4A4,4,0,0,1,564.58,592.7Z" fill="#151d38"/><path d="M580.37,592.7a3.92,3.92,0,1,1,3.89-4A4,4,0,0,1,580.37,592.7Z" fill="#151d38"/><path d="M529,549.23a3.92,3.92,0,1,1-4.07-3.84A4,4,0,0,1,529,549.23Z" fill="#151d38"/><path d="M497.44,549.33a3.92,3.92,0,1,1-4-3.95A4,4,0,0,1,497.44,549.33Z" fill="#151d38"/><path d="M529,533.54a3.92,3.92,0,1,1-4-3.93A4,4,0,0,1,529,533.54Z" fill="#151d38"/><path d="M493.83,529.62a3.94,3.94,0,1,1-.72,7.85,3.94,3.94,0,0,1,.72-7.85Z" fill="#151d38"/><path d="M580.43,545.3a3.86,3.86,0,1,1,3.83-4A3.89,3.89,0,0,1,580.43,545.3Z" fill="#151d38"/><path d="M596,600.63a3.94,3.94,0,1,1-3.8,4.1A4,4,0,0,1,596,600.63Z" fill="#151d38"/><path d="M580,608.49a3.94,3.94,0,1,1,4.27-3.65A4,4,0,0,1,580,608.49Z" fill="#151d38"/><path d="M513.23,533.62a3.94,3.94,0,0,1-7.87,0,3.94,3.94,0,1,1,7.87,0Z" fill="#151d38"/><path d="M513.23,549.24a3.94,3.94,0,1,1-4.08-3.85A4.05,4.05,0,0,1,513.23,549.24Z" fill="#151d38"/><path d="M473.77,604.46a3.93,3.93,0,1,1-4.09-3.83A4,4,0,0,1,473.77,604.46Z" fill="#151d38"/><path d="M505.36,517.71a3.94,3.94,0,1,1,3.94,4A4,4,0,0,1,505.36,517.71Z" fill="#151d38"/><path d="M572.24,537.49a3.94,3.94,0,1,1,4-3.58A3.91,3.91,0,0,1,572.24,537.49Z" fill="#151d38"/><path d="M568.47,604.58a3.95,3.95,0,1,1-4-4A4,4,0,0,1,568.47,604.58Z" fill="#151d38"/><path d="M572.43,569a3.92,3.92,0,1,1,3.85-4A3.85,3.85,0,0,1,572.43,569Z" fill="#151d38"/><path d="M619.81,569a3.92,3.92,0,1,1,3.82-4.09A4,4,0,0,1,619.81,569Z" fill="#151d38"/><path d="M572.38,513.85a3.92,3.92,0,1,1-3.82,4A3.85,3.85,0,0,1,572.38,513.85Z" fill="#151d38"/><path d="M513.23,565a3.94,3.94,0,1,1-4.11-3.8A4,4,0,0,1,513.23,565Z" fill="#151d38"/><path d="M505.28,604.45a3.88,3.88,0,1,1-4-3.83A3.9,3.9,0,0,1,505.28,604.45Z" fill="#151d38"/><path d="M517.31,600.62a3.94,3.94,0,1,1-4,3.88A3.91,3.91,0,0,1,517.31,600.62Z" fill="#151d38"/><path d="M548.83,600.62a3.94,3.94,0,1,1-.26,7.87,3.94,3.94,0,0,1,.26-7.87Z" fill="#151d38"/><path d="M533.07,513.74a3.78,3.78,0,0,1-4-3.84A3.83,3.83,0,0,1,533,506a3.88,3.88,0,0,1,3.87,3.74A3.82,3.82,0,0,1,533.07,513.74Z" fill="#151d38"/><path d="M623.64,612.36a3.94,3.94,0,1,1-4.09-3.78A3.91,3.91,0,0,1,623.64,612.36Z" fill="#151d38"/><path d="M623.64,596.67a3.94,3.94,0,1,1-4-3.88A3.89,3.89,0,0,1,623.64,596.67Z" fill="#151d38"/><path d="M548.8,521.78a3.88,3.88,0,0,1,3.87,4,3.92,3.92,0,1,1-3.87-4Z" fill="#151d38"/><path d="M576.37,557.08a3.95,3.95,0,0,1,7.89.16,3.95,3.95,0,0,1-7.89-.16Z" fill="#151d38"/><path d="M548.79,561.1a3.87,3.87,0,0,1-4-3.91,3.92,3.92,0,0,1,7.84-.07A3.88,3.88,0,0,1,548.79,561.1Z" fill="#151d38"/><path d="M627.44,608.5a3.94,3.94,0,1,1,4-3.84A3.9,3.9,0,0,1,627.44,608.5Z" fill="#151d38"/><path d="M473.77,541.39a3.92,3.92,0,1,1-4-3.82A3.85,3.85,0,0,1,473.77,541.39Z" fill="#151d38"/><path d="M489.51,509.82a3.77,3.77,0,0,1-3.89,3.92,3.82,3.82,0,0,1-3.88-3.7,3.88,3.88,0,0,1,3.79-4.06A3.83,3.83,0,0,1,489.51,509.82Z" fill="#151d38"/><path d="M552.67,541.42a3.92,3.92,0,1,1-4-3.85A3.85,3.85,0,0,1,552.67,541.42Z" fill="#151d38"/><path d="M564.51,545.3a3.87,3.87,0,1,1,4-3.9A3.89,3.89,0,0,1,564.51,545.3Z" fill="#151d38"/><path d="M572.44,553.27a3.94,3.94,0,1,1,3.84-4A3.89,3.89,0,0,1,572.44,553.27Z" fill="#151d38"/><path d="M481.64,502.08a3.88,3.88,0,0,1-4,3.81,3.83,3.83,0,0,1-3.72-4.1,3.77,3.77,0,0,1,3.89-3.67A3.82,3.82,0,0,1,481.64,502.08Z" fill="#151d38"/><path d="M513.24,612.38a3.94,3.94,0,1,1-4.07-3.8A3.92,3.92,0,0,1,513.24,612.38Z" fill="#151d38"/><path d="M513.24,596.64a3.94,3.94,0,1,1-4-3.85A3.89,3.89,0,0,1,513.24,596.64Z" fill="#151d38"/><path d="M505.28,588.88a3.88,3.88,0,1,1-3.83-4A3.86,3.86,0,0,1,505.28,588.88Z" fill="#151d38"/><path d="M489.51,588.7a3.88,3.88,0,0,1-3.86,4,3.92,3.92,0,0,1-.16-7.84A3.87,3.87,0,0,1,489.51,588.7Z" fill="#151d38"/><path d="M663.08,604.54a3.92,3.92,0,1,1-4-3.92A4,4,0,0,1,663.08,604.54Z" fill="#151d38"/><path d="M469.81,592.7a3.92,3.92,0,1,1,4-3.94A4,4,0,0,1,469.81,592.7Z" fill="#151d38"/><path d="M493.62,608.58a3.88,3.88,0,1,1-4,3.84A3.86,3.86,0,0,1,493.62,608.58Z" fill="#151d38"/><path d="M663.07,588.89a3.92,3.92,0,1,1-7.83-.34,3.92,3.92,0,0,1,7.83.34Z" fill="#151d38"/><path d="M485.62,569.14a3.76,3.76,0,0,1,3.89,3.92,3.83,3.83,0,0,1-4,3.85,3.89,3.89,0,0,1-3.79-3.83A3.81,3.81,0,0,1,485.62,569.14Z" fill="#151d38"/><path d="M536.87,572.91a3.89,3.89,0,0,1-3.86,4A3.84,3.84,0,0,1,529.1,573a3.76,3.76,0,0,1,3.72-3.85A3.83,3.83,0,0,1,536.87,572.91Z" fill="#151d38"/><path d="M517.18,584.86a3.92,3.92,0,1,1-3.86,4A3.88,3.88,0,0,1,517.18,584.86Z" fill="#151d38"/><path d="M647.27,573a3.89,3.89,0,1,1-7.78-.14,3.76,3.76,0,0,1,3.83-3.74A3.81,3.81,0,0,1,647.27,573Z" fill="#151d38"/><path d="M603.94,577a3.88,3.88,0,0,1,3.94,3.9,3.83,3.83,0,0,1-4,3.87,3.78,3.78,0,0,1-3.8-3.77A3.83,3.83,0,0,1,603.94,577Z" fill="#151d38"/><path d="M631.48,588.68a3.88,3.88,0,1,1-4-3.82A3.89,3.89,0,0,1,631.48,588.68Z" fill="#151d38"/><path d="M600,588.85a3.92,3.92,0,1,1-3.92-4A3.95,3.95,0,0,1,600,588.85Z" fill="#151d38"/><path d="M493.55,592.79a3.88,3.88,0,1,1-3.94,3.92A3.88,3.88,0,0,1,493.55,592.79Z" fill="#151d38"/><path d="M552.67,588.81a3.92,3.92,0,1,1-3.95-4A4,4,0,0,1,552.67,588.81Z" fill="#151d38"/><path d="M544.72,580.89a3.76,3.76,0,0,1-3.94,3.86A3.83,3.83,0,0,1,537,581a3.89,3.89,0,0,1,3.85-4A3.81,3.81,0,0,1,544.72,580.89Z" fill="#151d38"/><path d="M639.4,596.7a3.92,3.92,0,1,1-7.84-.19,3.92,3.92,0,0,1,7.84.19Z" fill="#151d38"/><path d="M635.5,608.57a3.88,3.88,0,0,1,.08,7.76,3.88,3.88,0,1,1-.08-7.76Z" fill="#151d38"/><path d="M481.64,581a3.84,3.84,0,0,1-4.06,3.77,3.77,3.77,0,0,1-3.71-3.86,3.82,3.82,0,0,1,3.91-3.91A3.88,3.88,0,0,1,481.64,581Z" fill="#151d38"/><path d="M525,616.33a3.88,3.88,0,1,1,.22-7.75,3.88,3.88,0,0,1-.22,7.75Z" fill="#151d38"/><path d="M529,596.66a3.92,3.92,0,1,1-7.84-.1,3.92,3.92,0,0,1,7.84.1Z" fill="#151d38"/><path d="M525.25,482.23a4,4,0,0,1,3.74,3.94,3.92,3.92,0,1,1-7.84-.08A4.08,4.08,0,0,1,525.25,482.23Z" fill="#151d38"/><path d="M497.53,494.19a3.88,3.88,0,1,1,4,3.83A3.88,3.88,0,0,1,497.53,494.19Z" fill="#151d38"/><path d="M517.3,498a3.92,3.92,0,1,1,3.77-4.09A3.86,3.86,0,0,1,517.3,498Z" fill="#151d38"/><path d="M552.68,494.13a3.93,3.93,0,1,1-3.95-4A3.95,3.95,0,0,1,552.68,494.13Z" fill="#151d38"/><path d="M493.62,521.69a3.92,3.92,0,1,1,3.82-4.08A3.94,3.94,0,0,1,493.62,521.69Z" fill="#151d38"/><path d="M525.06,513.84a3.93,3.93,0,1,1-3.9,4A3.95,3.95,0,0,1,525.06,513.84Z" fill="#151d38"/><path d="M556.75,521.69a3.92,3.92,0,1,1-.1-7.84,3.92,3.92,0,0,1,.1,7.84Z" fill="#151d38"/><path d="M469.84,529.51a3.82,3.82,0,0,1-3.91-3.92,3.92,3.92,0,1,1,3.91,3.92Z" fill="#151d38"/><path d="M564.49,521.78a3.87,3.87,0,1,1-3.91,4A3.91,3.91,0,0,1,564.49,521.78Z" fill="#151d38"/><path d="M462,537.49a3.94,3.94,0,0,1,.09-7.88,3.94,3.94,0,0,1-.09,7.88Z" fill="#151d38"/><path d="M462.05,553.27a3.94,3.94,0,1,1,3.79-4.09A3.92,3.92,0,0,1,462.05,553.27Z" fill="#151d38"/><path d="M469.79,553.37a3.83,3.83,0,0,1,4,3.86,3.92,3.92,0,0,1-7.84.12A3.83,3.83,0,0,1,469.79,553.37Z" fill="#151d38"/><path d="M568.47,557.28a3.95,3.95,0,1,1-3.95-3.91A3.86,3.86,0,0,1,568.47,557.28Z" fill="#151d38"/><path d="M461.91,569a3.92,3.92,0,0,1,.24-7.83,3.92,3.92,0,0,1-.24,7.83Z" fill="#151d38"/><path d="M525,561.19a3.92,3.92,0,1,1-3.86,4A3.94,3.94,0,0,1,525,561.19Z" fill="#151d38"/><path d="M635.52,561.18a3.92,3.92,0,1,1-4,3.94A4,4,0,0,1,635.52,561.18Z" fill="#151d38"/><path d="M592.08,565.09a3.87,3.87,0,0,1-3.92,3.94,3.92,3.92,0,0,1,0-7.83A3.88,3.88,0,0,1,592.08,565.09Z" fill="#151d38"/><path d="M560.49,565.23a3.82,3.82,0,0,1-4,3.79,3.92,3.92,0,0,1,.24-7.83A3.83,3.83,0,0,1,560.49,565.23Z" fill="#151d38"/><path d="M536.87,588.85a3.92,3.92,0,0,1-4,3.85,3.92,3.92,0,0,1,.14-7.84A3.91,3.91,0,0,1,536.87,588.85Z" fill="#151d38"/><path d="M560.49,549.36a3.86,3.86,0,0,1-4,3.9,3.94,3.94,0,0,1,.08-7.88A3.87,3.87,0,0,1,560.49,549.36Z" fill="#151d38"/><path d="M525,505.89a3.93,3.93,0,0,1-3.81-4.06,3.92,3.92,0,1,1,3.81,4.06Z" fill="#151d38"/><path d="M544.72,502.07a3.81,3.81,0,0,1-4,3.82A3.89,3.89,0,0,1,537,501.8a3.84,3.84,0,0,1,3.91-3.68A3.76,3.76,0,0,1,544.72,502.07Z" fill="#151d38"/><path d="M647.28,588.73a3.91,3.91,0,0,1-3.91,4,3.92,3.92,0,0,1-.1-7.84A3.92,3.92,0,0,1,647.28,588.73Z" fill="#151d38"/><path d="M536.87,541.37a3.89,3.89,0,1,1-7.77,0,3.75,3.75,0,0,1,3.75-3.81A3.81,3.81,0,0,1,536.87,541.37Z" fill="#151d38"/><path d="M473.77,509.84a3.93,3.93,0,0,1-7.85.18,3.92,3.92,0,1,1,7.85-.18Z" fill="#151d38"/><path d="M485.66,537.58a3.86,3.86,0,0,1,0,7.73,3.86,3.86,0,1,1,0-7.73Z" fill="#151d38"/><path d="M560.49,533.65a3.86,3.86,0,0,1-4,3.84,3.94,3.94,0,1,1,4-3.84Z" fill="#151d38"/><path d="M517.09,513.74a3.88,3.88,0,0,1,.09-7.77,3.84,3.84,0,0,1,3.9,3.94A3.79,3.79,0,0,1,517.09,513.74Z" fill="#151d38"/><path d="M481.64,517.86a3.92,3.92,0,0,1-4,3.83,3.92,3.92,0,0,1,.19-7.84A3.92,3.92,0,0,1,481.64,517.86Z" fill="#151d38"/><path d="M596.19,576.9a3.92,3.92,0,0,1-4-3.86,3.92,3.92,0,0,1,7.84-.19A3.92,3.92,0,0,1,596.19,576.9Z" fill="#151d38"/><path d="M517.26,569.14a3.78,3.78,0,0,1,3.82,4,3.88,3.88,0,0,1-7.75-.13A3.76,3.76,0,0,1,517.26,569.14Z" fill="#151d38"/><path d="M485.56,600.62a3.94,3.94,0,1,1,0,7.87,3.94,3.94,0,0,1,0-7.87Z" fill="#151d38"/><path d="M544.72,517.67a3.86,3.86,0,0,1-3.83,4,3.92,3.92,0,0,1-.2-7.84A3.84,3.84,0,0,1,544.72,517.67Z" fill="#151d38"/><path d="M493.62,498.12a3.86,3.86,0,0,1,3.82,4,3.92,3.92,0,0,1-7.83-.18A3.86,3.86,0,0,1,493.62,498.12Z" fill="#151d38"/><path d="M655.12,580.92a3.76,3.76,0,0,1-4,3.83,3.82,3.82,0,0,1-3.79-3.79,3.89,3.89,0,0,1,3.88-4A3.81,3.81,0,0,1,655.12,580.92Z" fill="#151d38"/><path d="M635.4,577a3.91,3.91,0,0,1,4,3.88,3.92,3.92,0,0,1-7.84.16A3.93,3.93,0,0,1,635.4,577Z" fill="#151d38"/><path d="M497.44,565.05a3.92,3.92,0,1,1-4-3.86A3.94,3.94,0,0,1,497.44,565.05Z" fill="#151d38"/><path d="M469.75,569.14a3.86,3.86,0,0,1,4,3.83,3.93,3.93,0,0,1-7.85.19A3.85,3.85,0,0,1,469.75,569.14Z" fill="#151d38"/><path d="M576.28,580.87a3.86,3.86,0,0,1-7.73.13,3.86,3.86,0,1,1,7.73-.13Z" fill="#151d38"/><path d="M493.49,584.76a3.87,3.87,0,0,1-3.89-4,3.92,3.92,0,0,1,7.83.06A3.87,3.87,0,0,1,493.49,584.76Z" fill="#151d38"/><path d="M532.87,498a3.92,3.92,0,1,1,.33-7.84,3.92,3.92,0,0,1-.33,7.84Z" fill="#151d38"/><path d="M529,580.78a3.92,3.92,0,0,1-7.83.33,3.92,3.92,0,1,1,7.83-.33Z" fill="#151d38"/><path d="M651.31,600.54a3.88,3.88,0,1,1,0-7.75,3.88,3.88,0,0,1,0,7.75Z" fill="#151d38"/><path d="M505.28,525.55a3.88,3.88,0,1,1-7.76.08,3.88,3.88,0,0,1,7.76-.08Z" fill="#151d38"/><path d="M489.51,525.67a3.74,3.74,0,0,1-4,3.84,3.78,3.78,0,0,1-3.83-3.75,3.84,3.84,0,0,1,3.85-4A3.79,3.79,0,0,1,489.51,525.67Z" fill="#151d38"/><path d="M548.81,569.14a3.84,3.84,0,0,1,3.86,4,3.92,3.92,0,0,1-7.84-.11A3.83,3.83,0,0,1,548.81,569.14Z" fill="#151d38"/><path d="M655.12,612.52a3.79,3.79,0,0,1-4,3.81,3.88,3.88,0,0,1,.14-7.75A3.76,3.76,0,0,1,655.12,612.52Z" fill="#151d38"/><path d="M607.88,565.11a3.91,3.91,0,0,1-4,3.92,3.92,3.92,0,0,1,0-7.84A3.91,3.91,0,0,1,607.88,565.11Z" fill="#151d38"/><path d="M532.87,600.62a3.94,3.94,0,1,1,.08,7.87,3.94,3.94,0,0,1-.08-7.87Z" fill="#151d38"/><path d="M552.67,509.92a3.92,3.92,0,0,1-7.84,0,3.92,3.92,0,1,1,7.84,0Z" fill="#151d38"/><path d="M604,608.58a3.81,3.81,0,0,1,3.88,3.94,3.86,3.86,0,0,1-4,3.81,3.88,3.88,0,0,1,.15-7.75Z" fill="#151d38"/><path d="M588.22,616.33a3.88,3.88,0,1,1,3.86-4A3.81,3.81,0,0,1,588.22,616.33Z" fill="#151d38"/><path d="M505.28,509.93a3.88,3.88,0,0,1-7.76,0,3.88,3.88,0,1,1,7.76,0Z" fill="#151d38"/><path d="M556.62,616.33a3.88,3.88,0,1,1,.15-7.75,3.88,3.88,0,0,1-.15,7.75Z" fill="#151d38"/><path d="M540.92,616.33a3.88,3.88,0,1,1,0-7.76,3.75,3.75,0,0,1,3.82,3.74A3.8,3.8,0,0,1,540.92,616.33Z" fill="#151d38"/><path d="M647.28,604.51a3.89,3.89,0,1,1-7.78,0,3.9,3.9,0,0,1,3.77-3.87A4,4,0,0,1,647.28,604.51Z" fill="#151d38"/><path d="M556.63,505.89a3.85,3.85,0,0,1-3.87-4,3.81,3.81,0,0,1,4-3.81,3.74,3.74,0,0,1,3.72,3.83A3.79,3.79,0,0,1,556.63,505.89Z" fill="#151d38"/><path d="M505.29,572.9a3.88,3.88,0,1,1-7.76.1,3.88,3.88,0,0,1,7.76-.1Z" fill="#151d38"/><path d="M509.23,505.89a4,4,0,0,1-3.87-4,3.94,3.94,0,0,1,7.87.15A4,4,0,0,1,509.23,505.89Z" fill="#151d38"/><path d="M462.19,608.58a3.88,3.88,0,1,1-4.08,3.71A3.8,3.8,0,0,1,462.19,608.58Z" fill="#151d38"/><path d="M481.64,612.4a3.85,3.85,0,0,1-3.91,3.93,3.88,3.88,0,1,1,3.91-3.93Z" fill="#151d38"/><path d="M588.1,584.76a3.76,3.76,0,0,1-3.75-4,3.87,3.87,0,1,1,3.75,4Z" fill="#151d38"/><path d="M619.76,577a4,4,0,0,1,3.87,4,3.94,3.94,0,0,1-7.87-.13A4,4,0,0,1,619.76,577Z" fill="#151d38"/><path d="M532.88,553.37a3.8,3.8,0,0,1,4,3.82A3.84,3.84,0,0,1,533,561.1a3.87,3.87,0,0,1-.08-7.74Z" fill="#151d38"/><path d="M556.65,577a3.8,3.8,0,0,1,3.84,4,3.74,3.74,0,0,1-3.75,3.8,3.8,3.8,0,0,1-4-3.83A3.85,3.85,0,0,1,556.65,577Z" fill="#151d38"/><path d="M521.08,557.2a3.88,3.88,0,1,1-7.76-.07,3.88,3.88,0,0,1,7.76.07Z" fill="#151d38"/><path d="M505.28,557.13a3.88,3.88,0,1,1-4-3.76A3.74,3.74,0,0,1,505.28,557.13Z" fill="#151d38"/><path d="M489.51,557.15a3.8,3.8,0,0,1-3.86,4,3.83,3.83,0,0,1-3.91-3.92,3.89,3.89,0,0,1,7.78,0Z" fill="#151d38"/><path d="M631.48,573a3.88,3.88,0,1,1-7.76,0,3.88,3.88,0,0,1,7.76,0Z" fill="#151d38"/><path d="M611.8,584.87a3.92,3.92,0,0,1,.07,7.84,3.92,3.92,0,0,1-.07-7.84Z" fill="#151d38"/><path d="M461.87,577a3.84,3.84,0,0,1,4,3.86,3.79,3.79,0,0,1-3.9,3.91,3.74,3.74,0,0,1-3.83-3.72A3.81,3.81,0,0,1,461.87,577Z" fill="#151d38"/><path d="M541,561.19a3.92,3.92,0,0,1-.11,7.84,3.92,3.92,0,1,1,.11-7.84Z" fill="#151d38"/><path d="M481.64,565.16a3.92,3.92,0,0,1-4,3.87,3.92,3.92,0,0,1,.1-7.84A3.91,3.91,0,0,1,481.64,565.16Z" fill="#151d38"/><path d="M465.84,596.56a3.78,3.78,0,0,1-3.83,4,3.74,3.74,0,0,1-3.9-3.65,3.87,3.87,0,1,1,7.73-.32Z" fill="#151d38"/><path d="M517.19,521.78a3.8,3.8,0,0,1,3.89,3.93,3.88,3.88,0,1,1-3.89-3.93Z" fill="#151d38"/><path d="M532.95,521.78a3.84,3.84,0,0,1,3.93,3.91,3.8,3.8,0,0,1-4,3.83,3.74,3.74,0,0,1-3.79-3.77A3.79,3.79,0,0,1,532.95,521.78Z" fill="#151d38"/><path d="M604.07,600.54a3.88,3.88,0,0,1-.27-7.74,3.88,3.88,0,1,1,.27,7.74Z" fill="#151d38"/><path d="M477.84,600.54a3.88,3.88,0,0,1-.29-7.74,3.88,3.88,0,1,1,.29,7.74Z" fill="#151d38"/><path d="M588.19,592.79a3.88,3.88,0,0,1,.16,7.75,3.88,3.88,0,1,1-.16-7.75Z" fill="#151d38"/><path d="M544.72,596.62a3.76,3.76,0,0,1-3.88,3.92,3.87,3.87,0,0,1-.09-7.75A3.78,3.78,0,0,1,544.72,596.62Z" fill="#151d38"/><path d="M560.49,596.56a3.74,3.74,0,0,1-3.81,4,3.88,3.88,0,1,1,3.81-4Z" fill="#151d38"/><path d="M659.19,616.42a4,4,0,0,1,3.88,4,3.92,3.92,0,0,1-7.84-.08A3.94,3.94,0,0,1,659.19,616.42Z" fill="#151d38"/><path d="M643.39,616.42a3.91,3.91,0,0,1,3.88,4,3.81,3.81,0,0,1-3.91,3.71,3.76,3.76,0,0,1-3.87-3.73A3.86,3.86,0,0,1,643.39,616.42Z" fill="#151d38"/><path d="M596.07,624.14a3.85,3.85,0,0,1-3.9-3.74,3.92,3.92,0,1,1,7.84,0A3.85,3.85,0,0,1,596.07,624.14Z" fill="#151d38"/><path d="M611.83,553.37a3.73,3.73,0,0,1,3.85,3.73,3.78,3.78,0,0,1-3.84,4,3.84,3.84,0,0,1-3.87-4A3.78,3.78,0,0,1,611.83,553.37Z" fill="#151d38"/><path d="M509.36,577a4,4,0,0,1,3.87,4,3.94,3.94,0,0,1-7.88-.12A4,4,0,0,1,509.36,577Z" fill="#151d38"/><path d="M580.39,616.42a4,4,0,0,1,3.87,4,3.95,3.95,0,0,1-7.89-.15A4,4,0,0,1,580.39,616.42Z" fill="#151d38"/><path d="M564.56,616.42a4,4,0,0,1,3.9,4,3.95,3.95,0,0,1-7.89-.07A4,4,0,0,1,564.56,616.42Z" fill="#151d38"/><path d="M469.93,616.42a3.93,3.93,0,0,1,3.84,4.08,3.92,3.92,0,0,1-7.83-.16A4,4,0,0,1,469.93,616.42Z" fill="#151d38"/><path d="M485.57,624.14a3.82,3.82,0,0,1-3.84-3.78,3.92,3.92,0,0,1,4-3.95,3.87,3.87,0,0,1,3.82,4.06A3.76,3.76,0,0,1,485.57,624.14Z" fill="#151d38"/><path d="M536.87,620.33a3.81,3.81,0,0,1-3.8,3.82,3.76,3.76,0,0,1-4-3.86,3.85,3.85,0,0,1,3.78-3.86A3.91,3.91,0,0,1,536.87,620.33Z" fill="#151d38"/><path d="M548.84,624.14a3.83,3.83,0,0,1-4-3.87,3.92,3.92,0,0,1,7.83.07A3.84,3.84,0,0,1,548.84,624.14Z" fill="#151d38"/><path d="M564.45,569.14a3.89,3.89,0,0,1,4,3.85,3.94,3.94,0,0,1-7.88.16A3.88,3.88,0,0,1,564.45,569.14Z" fill="#151d38"/><path d="M584.26,573a3.95,3.95,0,1,1-7.9-.07,4,4,0,0,1,7.9.07Z" fill="#151d38"/><path d="M481.64,533.54a4,4,0,0,1-3.94,3.95,3.95,3.95,0,0,1,0-7.89A4,4,0,0,1,481.64,533.54Z" fill="#151d38"/><path d="M568.47,509.93a3.95,3.95,0,0,1-7.89,0,3.95,3.95,0,1,1,7.89,0Z" fill="#151d38"/><path d="M544.72,533.57a3.88,3.88,0,0,1-3.95,3.92,3.94,3.94,0,0,1,0-7.88A3.9,3.9,0,0,1,544.72,533.57Z" fill="#151d38"/><path d="M501.48,545.3a3.86,3.86,0,1,1,0-7.73,3.86,3.86,0,0,1,0,7.73Z" fill="#151d38"/><path d="M615.69,604.56a3.89,3.89,0,0,1-4,3.94,3.94,3.94,0,0,1,0-7.87A3.89,3.89,0,0,1,615.69,604.56Z" fill="#151d38"/><path d="M576.28,612.48a3.86,3.86,0,1,1-3.9-3.9A3.78,3.78,0,0,1,576.28,612.48Z" fill="#151d38"/><path d="M540.88,545.39a3.95,3.95,0,0,1,.06,7.89,3.94,3.94,0,1,1-.06-7.89Z" fill="#151d38"/><path d="M611.77,576.9a3.89,3.89,0,0,1-3.8-4.08,3.81,3.81,0,0,1,3.93-3.68,3.76,3.76,0,0,1,3.78,4.05A3.81,3.81,0,0,1,611.77,576.9Z" fill="#151d38"/><path d="M477.87,545.39a3.94,3.94,0,0,1-.12,7.88,3.94,3.94,0,0,1,.12-7.88Z" fill="#151d38"/><path d="M521.08,541.53a3.88,3.88,0,1,1-3.85-4A3.78,3.78,0,0,1,521.08,541.53Z" fill="#151d38"/><path d="M576.28,596.72a3.86,3.86,0,1,1-3.86-3.94A3.75,3.75,0,0,1,576.28,596.72Z" fill="#151d38"/><path d="M521.07,620.29a3.88,3.88,0,0,1-7.75,0,3.88,3.88,0,1,1,7.75,0Z" fill="#151d38"/><path d="M631.47,620.19a3.88,3.88,0,0,1-7.75.23,3.88,3.88,0,1,1,7.75-.23Z" fill="#151d38"/><path d="M505.28,620.38a3.88,3.88,0,0,1-7.75-.16,3.88,3.88,0,1,1,7.75.16Z" fill="#151d38"/><path d="M615.68,620.25a3.75,3.75,0,0,1-3.67,3.89,3.82,3.82,0,0,1-4-3.78,3.92,3.92,0,0,1,3.94-3.94A3.85,3.85,0,0,1,615.68,620.25Z" fill="#151d38"/><path d="M172.51,581.84a5.07,5.07,0,0,1,4.84-5.21,5.09,5.09,0,1,1,.23,10.17A5,5,0,0,1,172.51,581.84Z" fill="#151d38"/><path d="M228.26,569.79a5,5,0,0,1,.11-10.05,5.06,5.06,0,0,1,5.06,5.21A5,5,0,0,1,228.26,569.79Z" fill="#151d38"/><path d="M177.62,569.79a4.89,4.89,0,0,1-5.1-4.87,5,5,0,0,1,5.05-5.18,5,5,0,0,1,.05,10.05Z" fill="#151d38"/><path d="M194.5,593.68a4.85,4.85,0,0,1,5,5,5,5,0,1,1-10.05-.07A4.91,4.91,0,0,1,194.5,593.68Z" fill="#151d38"/><path d="M211.39,593.68a5,5,0,0,1,5.11,4.91,5.08,5.08,0,1,1-10.17.07A5,5,0,0,1,211.39,593.68Z" fill="#151d38"/><path d="M160.65,620.66a5,5,0,0,1-5.13-4.89,5.06,5.06,0,1,1,5.13,4.89Z" fill="#151d38"/><path d="M224.92,573.34a5,5,0,1,1-4.88-5.09A4.91,4.91,0,0,1,224.92,573.34Z" fill="#151d38"/><path d="M169.11,568.25a4.85,4.85,0,0,1,4.93,5,5,5,0,0,1-5,5,5.06,5.06,0,0,1-5.1-5.18A5,5,0,0,1,169.11,568.25Z" fill="#151d38"/><path d="M211.4,586.8a5.09,5.09,0,1,1,5.09-5A5.17,5.17,0,0,1,211.4,586.8Z" fill="#151d38"/><path d="M223.38,581.65a5,5,0,0,1,5-5,5.17,5.17,0,0,1,5,5,5.1,5.1,0,0,1-5.2,5.11A5,5,0,0,1,223.38,581.65Z" fill="#151d38"/><path d="M202.85,551.21a5.08,5.08,0,1,1,.1,10.15,5.08,5.08,0,0,1-.1-10.15Z" fill="#151d38"/><path d="M177.56,593.68a5,5,0,0,1,5,5,5.09,5.09,0,0,1-5,5.09,5,5,0,0,1-5.11-5.15A4.87,4.87,0,0,1,177.56,593.68Z" fill="#151d38"/><path d="M191.07,607.24a5.07,5.07,0,0,1-10.14,0,5.07,5.07,0,1,1,10.14,0Z" fill="#151d38"/><path d="M224.92,607.14a5,5,0,0,1-10.06.14,5,5,0,1,1,10.06-.14Z" fill="#151d38"/><path d="M228.1,620.66a5,5,0,0,1,.44-10.07,5,5,0,1,1-.44,10.07Z" fill="#151d38"/><path d="M174,624.14a5,5,0,0,1-5,5A5.08,5.08,0,0,1,164,624a5,5,0,0,1,5.13-4.85A4.83,4.83,0,0,1,174,624.14Z" fill="#151d38"/><path d="M152.17,619.12a5,5,0,0,1,5,5,5.11,5.11,0,0,1-5,5.06A5,5,0,0,1,147.1,624,4.85,4.85,0,0,1,152.17,619.12Z" fill="#151d38"/><path d="M191.07,624.07a5.07,5.07,0,1,1-10.14,0,5.07,5.07,0,0,1,10.14,0Z" fill="#151d38"/><path d="M219.85,619.12a4.89,4.89,0,0,1,5.08,4.88,5,5,0,1,1-10.06.1A4.91,4.91,0,0,1,219.85,619.12Z" fill="#151d38"/><path d="M241.85,590.32a4.89,4.89,0,0,1-5.07,4.9,5,5,0,1,1,.25-10A4.91,4.91,0,0,1,241.85,590.32Z" fill="#151d38"/><path d="M202.88,595.22a5,5,0,0,1,0-10,5,5,0,1,1,0,10Z" fill="#151d38"/><path d="M185.94,595.22a5,5,0,1,1,5.12-4.9A5,5,0,0,1,185.94,595.22Z" fill="#151d38"/><path d="M191.07,556.24a5.07,5.07,0,1,1-5.06-5A5.13,5.13,0,0,1,191.07,556.24Z" fill="#151d38"/><path d="M224.92,556.32a5,5,0,1,1-4.93-5.12A5,5,0,0,1,224.92,556.32Z" fill="#151d38"/><path d="M211.52,569.79a5,5,0,1,1,5-5.05A5,5,0,0,1,211.52,569.79Z" fill="#151d38"/><path d="M148.64,615.68a4.93,4.93,0,0,1-5,5,5,5,0,0,1-5.07-4.95,5.07,5.07,0,0,1,5.16-5.12A5,5,0,0,1,148.64,615.68Z" fill="#151d38"/><path d="M199.48,581.71a5,5,0,0,1-4.93,5.09,5,5,0,0,1-5.12-5.17,5,5,0,1,1,10.05.08Z" fill="#151d38"/><path d="M211.48,620.66a5,5,0,1,1,5-5A5.07,5.07,0,0,1,211.48,620.66Z" fill="#151d38"/><path d="M185.93,568.25a5,5,0,0,1,5.13,4.88,5.07,5.07,0,1,1-5.13-4.88Z" fill="#151d38"/><path d="M177.54,620.66a4.92,4.92,0,0,1-5-5,5,5,0,0,1,4.89-5.12,5,5,0,1,1,.14,10.07Z" fill="#151d38"/><path d="M169,585.17a5,5,0,0,1,.14,10,5,5,0,1,1-.14-10Z" fill="#151d38"/><path d="M194.59,620.66a5,5,0,0,1-5.15-4.85,5,5,0,0,1,5-5.23,5,5,0,0,1,5,5A4.91,4.91,0,0,1,194.59,620.66Z" fill="#151d38"/><path d="M236.82,568.25a4.85,4.85,0,0,1,5,4.93,5,5,0,0,1-5.1,5.13,5.12,5.12,0,0,1-5-5.09A5,5,0,0,1,236.82,568.25Z" fill="#151d38"/><path d="M197.95,572.94a4.88,4.88,0,0,1,5.27-4.68,5,5,0,0,1,4.79,5.21,5.07,5.07,0,0,1-5.43,4.84A5,5,0,0,1,197.95,572.94Z" fill="#151d38"/><path d="M199.48,564.84a4.89,4.89,0,0,1-5,4.94,5,5,0,1,1,5-4.94Z" fill="#151d38"/><path d="M241.85,624.06a5,5,0,0,1-4.89,5.12,5.16,5.16,0,0,1-5.2-5.13,5,5,0,0,1,5.09-4.93A4.83,4.83,0,0,1,241.85,624.06Z" fill="#151d38"/><path d="M219.83,585.17a5,5,0,1,1-5,5A5,5,0,0,1,219.83,585.17Z" fill="#151d38"/><path d="M197.95,624a4.84,4.84,0,0,1,5-4.9,4.94,4.94,0,0,1,5,5,5.1,5.1,0,0,1-5.21,5.08A5,5,0,0,1,197.95,624Z" fill="#151d38"/><path d="M241.85,607a5,5,0,0,1-4.84,5.16,5.12,5.12,0,0,1-5.25-5.07,5.22,5.22,0,0,1,5-5.08A5,5,0,0,1,241.85,607Z" fill="#151d38"/><path d="M223.38,598.56a4.82,4.82,0,0,1,5.06-4.88,5,5,0,0,1,5,5,5.1,5.1,0,0,1-5.25,5.05A5,5,0,0,1,223.38,598.56Z" fill="#151d38"/></svg>