<svg id="Layer_1" data-name="Layer 1" xmlns="http://www.w3.org/2000/svg" viewBox="0 0 71.39 83.46"><title>leaf-brown-right</title><path d="M58.85,26.74c0,4.36-.8,3.33,3.29,4.68,2.43.8,4.88,1.52,7.3,2.33s2.57,1.85.65,3.48c-2.25,1.92-4.55,3.78-6.83,5.66-2.13,1.75-1.8,1.37-.84,3.73.39,1,.84,1.9,1.24,2.86,1,2.53.57,3.27-2.1,3.08s-5.57-.5-8.35-.77c-3.74-.36-7.47-.75-11.21-1.1-.45,0-1.07-.29-1.32.14s.31.83.62,1.16q5.55,6,11.13,11.92c.38.41.79.79,1.14,1.23,1.09,1.36.86,2.34-.75,2.91s-3.05.94-4.6,1.34a1.77,1.77,0,0,0-1.54,2,78.48,78.48,0,0,1,0,8c-.08.83,0,1.69-.07,2.52-.18,1.43-1,1.88-2.38,1.23-.77-.37-1.42-1-2.21-1.33a15.66,15.66,0,0,1-4.19-2.39c-2.47-2.09-3.36-3.25-4.73-1.94-1,1-2.16,1.9-3.27,2.82-2,1.61-2.82,1.37-3.53-1-1.92-6.59-3.81-13.2-5.71-19.8l-2.85-9.9C17,47.32,17,47.3,14.61,47.77,11,48.47,7.4,49.2,3.8,49.9a18.33,18.33,0,0,1-2.13.31A1.36,1.36,0,0,1,0,49.13a1.47,1.47,0,0,1,1.2-1.79,9.84,9.84,0,0,1,1.18-.22c3.84-.76,7.68-1.53,11.52-2.27,2.47-.48,2.52-.47,2.26-3.08-.68-6.68-1.42-13.35-2.14-20-.38-3.58-.82-7.15-1.14-10.73-.22-2.39.49-2.93,2.74-2.23,1.37.43,2.75.86,4.09,1.37a1.75,1.75,0,0,0,2.39-.83c1.77-2.66,3.61-5.28,5.46-7.88,1.45-2,2.57-1.93,3.54.33,1.16,2.72,2.25,5.47,3.37,8.2.93,2.26.93,2.24,3.28,2,1.35-.16,2.7-.32,4.06-.36,1.62,0,2.17.68,1.72,2.27-.28,1-.7,2-1.07,2.92C40.77,21.24,39,25.71,37.35,30.2c-.24.65-1,1.53-.49,1.95.67.58,1.41-.35,2.07-.69,5.32-2.75,10.63-5.54,15.94-8.31,3.38-1.76,4-1.36,4,2.39C58.85,25.94,58.85,26.34,58.85,26.74Z" fill="#151d38"/><path d="M55.66,29.21h.05c0-.64,0-1.28,0-1.92,0-.82-.43-.94-1.08-.61l-1.49.78c-5.8,3-11.6,6.1-17.42,9.1-1,.51-2,1.65-3.24.48-1-1-.17-2.12.2-3.11,2.2-5.83,4.45-11.64,6.66-17.46.7-1.85.48-1.61-2.06-1.45-.77,0-1.55.16-2.33.21-1.46.1-2.18-.82-2.5-2.8a6.44,6.44,0,0,0-1.3-2.71c-.19-.26-.22-.87-.7-.82s-.3.49-.33.76q-1.46,15-2.89,30.06c-.24,2.58-.18,2.59,2.31,2.1L54,37q4-.78,8-1.61a3.26,3.26,0,0,0,.8-.42,4.91,4.91,0,0,0-.82-.45c-1.52-.5-3-1-4.57-1.45a2.14,2.14,0,0,1-1.74-2.47C55.7,30.17,55.66,29.69,55.66,29.21Z" fill="#ecc063"/><path d="M57.48,49.19v0c.32,0,.64.06,1,.07,1.65.06,1.73,0,1.15-1.53-.32-.82-.71-1.61-1-2.43-.65-1.65-.6-1.86.79-3.08.84-.74,1.74-1.41,2.58-2.16.52-.46,1.59-.9,1.34-1.48s-1.27,0-1.91.09q-16,3.08-32,6.23a7.07,7.07,0,0,0-.93.24c-.42.14-.68.4-.44.88s.49,1,.75,1.5L42.11,73c.22.42.43.86.68,1.26a.82.82,0,0,0,.51.38c.33,0,.29-.32.3-.53,0-1.52,0-3,.07-4.56.05-1.77.23-2,1.94-2.54,1.14-.36,2.29-.69,3.45-1,.55-.15.6-.48.31-.86s-.84-1-1.28-1.43l-12-12.79a9.48,9.48,0,0,1-1.25-1.47,1.39,1.39,0,0,1,1.27-2.23,26.1,26.1,0,0,1,3.44.23Z" fill="#ecc063"/><path d="M16.22,13.8C17.1,22,18,30.23,18.87,38.49c.14,1.35.26,2.7.43,4,.06.45.12,1.08.74,1a8.31,8.31,0,0,0,3.49-.75c.77-.44.49-1.46.57-2.21.73-7.07,1.41-14.14,2.1-21.22q.5-5.13,1-10.26c0-.3,0-.82-.1-.89-.46-.22-.68.23-.9.55-.87,1.24-1.72,2.5-2.61,3.73-1.09,1.5-1.28,1.57-3,1.06-1-.29-2-.67-3-1C16.18,12.19,16.18,12.21,16.22,13.8Z" fill="#ecc063"/><path d="M34,73.27a3,3,0,0,1,1.46.65c1.41.91,2.81,1.83,4.22,2.72a.82.82,0,0,0,.63.14c.32-.14.08-.41,0-.6-.19-.44-.41-.86-.64-1.29L25.47,47.76c-.19-.35-.38-.7-.56-1.06A1.05,1.05,0,0,0,23.56,46c-.54.14-1.1.19-1.65.3-1.88.38-1.9.39-1.34,2.35q2.73,9.55,5.48,19.08c.71,2.45,1.41,4.91,2.13,7.36.6,2,.61,2,2.32.61.73-.62,1.45-1.25,2.19-1.86A2.1,2.1,0,0,1,34,73.27Z" fill="#ecc063"/></svg>