<svg id="Layer_1" data-name="Layer 1" xmlns="http://www.w3.org/2000/svg" viewBox="0 0 135.85 63.86"><title>leaf-brown-left</title><path d="M21.47,0c3,2.5,6.57,4.2,9.82,6.36.64.43,1,0,1.46-.35,1.2-1.06,2.36-2.16,3.58-3.2,1.76-1.5,2.79-1.17,3.32,1.11,1.48,6.3,2.92,12.61,4.38,18.91.14.61.13,1.58.69,1.64s.78-.9,1.08-1.44q3.72-6.85,7.4-13.72c.27-.49.52-1,.81-1.47,1.07-1.77,2-1.86,3.24-.26.63.82,1.19,1.71,1.78,2.56,1.73,2.5,1.73,2.5,4.51,1.57,2.58-.86,5.15-1.73,7.73-2.57.81-.26,1.66-.76,2.47,0s.47,1.59.24,2.45c-.82,3.09-1.58,6.19-2.44,9.27a1.73,1.73,0,0,0,1,2.33,47.65,47.65,0,0,1,4.11,2.46c1.45,1,1.46,2,.05,3s-2.88,2-4.33,3l-21.71,15c-1.78,1.23-1.78,1.24-.69,3.15q2.84,5,5.69,10c.28.49.58,1,.81,1.47.41.91.35,1.76-.65,2.23s-1.55-.1-2-.84c-1.84-3.18-3.63-6.4-5.48-9.57-.68-1.17-1-2.88-2.19-3.31s-2.47.79-3.69,1.34Q29.59,57,16.75,63a16.6,16.6,0,0,1-1.53.69c-1.52.52-2.31,0-2.4-1.58-.08-1.35,0-2.72,0-4.08,0-2.3,0-2.31-2.14-2.93L2.61,52.73A8.75,8.75,0,0,1,.8,52.1a1.38,1.38,0,0,1-.41-2.23,8.64,8.64,0,0,1,1.21-1.15l6.53-5.66c1.56-1.36,1.56-1.36.75-3.16-.53-1.17-1.09-2.31-1.6-3.49-1-2.24-.49-3,1.91-2.91,3.76.11,7.51.3,11.26.45,2,.08,4,.16,6,.16.58,0,1.46.43,1.69-.3s-.67-1-1.11-1.41q-6.39-6.16-12.81-12.29c-.35-.33-.7-.66-1-1-1.81-1.82-1.63-2.72.73-3.53,1.36-.46,2.73-.9,4.12-1.27a1.74,1.74,0,0,0,1.48-2c-.14-3.11-.11-6.24-.26-9.35A4.56,4.56,0,0,1,20,0Z" fill="#151d38"/><path d="M8,47.5a4.61,4.61,0,0,0,2.12-.23l7.23-1.68q10.85-2.53,21.69-5.07c1.81-.43,1.8-.47.9-2.12-.08-.14-.16-.27-.24-.41L24,10.29c-.24-.42-.47-.84-.72-1.24-.12-.19-.26-.42-.54-.34s-.25.36-.25.58c0,1.68,0,3.36.05,5a2,2,0,0,1-1.65,2.26c-1.15.33-2.28.74-3.42,1.09-.63.19-.77.5-.31,1s.91.9,1.37,1.34l14.2,13.6c.4.39.81.77,1.2,1.18a1.46,1.46,0,0,1,.37,1.75,1.57,1.57,0,0,1-1.57.89c-.48,0-1,0-1.44,0-5.51-.24-11-.46-16.53-.75-4-.21-4-.24-2.38,3.54l.09.22c.85,2,.77,2.2-.85,3.7-1.2,1.12-2.74,1.89-3.5,3.45H8Z" fill="#c57659"/><path d="M44,38.45a13.79,13.79,0,0,1,1-1.33q6.94-7.29,13.91-14.55,3.64-3.81,7.28-7.62c.21-.22.52-.67.45-.77-.2-.28-.57-.11-.87,0-1.51.51-3,1-4.54,1.53a2,2,0,0,1-2.67-.91c-.6-.94-1.24-1.86-1.91-2.76-.81-1.09-.87-1.1-1.54.14q-4.4,8.1-8.76,16.23c-.3.56-.62,1.12-.93,1.67a1.51,1.51,0,0,1-1.59.84,1.49,1.49,0,0,1-1.28-1.26c-.29-1.24-.61-2.48-.9-3.72-1.41-6.06-2.81-12.13-4.24-18.18C37.1,6.39,37,6.37,36,7.2c-.8.66-1.59,1.34-2.32,2.07a2.09,2.09,0,0,1-3,.29C29.34,8.67,28,7.86,26.6,7c-.26-.16-.57-.46-.83-.17s.06.58.2.85.4.69.6,1L42.31,36.43c.28.49.54,1,.86,1.44C43.3,38,43.54,38.14,44,38.45Z" fill="#c57659"/><path d="M16.53,59.71l1.41-.63L42.78,47.68q.65-.3,1.29-.63a.55.55,0,0,0,.3-.79,13.78,13.78,0,0,0-1.87-3c-.65-.65-1.67,0-2.5.19C32.7,45.09,25.38,46.8,18.07,48.5l-8.64,2a1.48,1.48,0,0,0-1,.59,8.83,8.83,0,0,0,1.06.47q2.29.69,4.6,1.33a2,2,0,0,1,1.67,2.26c-.06,1.28,0,2.56,0,3.84C15.78,59.39,15.8,59.82,16.53,59.71Z" fill="#c57659"/><path d="M47.68,45c.5-.33,1-.66,1.56-1L71.3,28.76c.33-.23.65-.46,1-.67.78-.5,1-1,0-1.52s-1.8-1-2.67-1.59c-1.77-1.1-1.85-1.29-1.36-3.29.38-1.55.78-3.09,1.17-4.64.05-.22.06-.48-.23-.54a.6.6,0,0,0-.42.16,8.5,8.5,0,0,0-.69.66Q57.19,28.75,46.27,40.16c-.47.49-1.25.93-.77,1.79a10,10,0,0,0,1.9,3C47.46,45,47.55,45,47.68,45Z" fill="#c57659"/><path d="M135.85,45.88a2.47,2.47,0,0,1-2.46,2.66,2.61,2.61,0,0,1-2.78-2.38,2.75,2.75,0,0,1,2.62-2.85A2.64,2.64,0,0,1,135.85,45.88Z" fill="#151d38"/></svg>